<?xml version="1.0" encoding="UTF-8" standalone="no"?>
<svg width="32px" height="32px" viewBox="0 0 32 32" version="1.1" xmlns="http://www.w3.org/2000/svg" xmlns:xlink="http://www.w3.org/1999/xlink">
    <!-- Generator: Sketch 50.2 (55047) - http://www.bohemiancoding.com/sketch -->
    <title>icons/focus</title>
    <desc>Created with Sketch.</desc>
    <defs></defs>
    <g id="icons/focus" stroke="none" stroke-width="1" fill="none" fill-rule="evenodd">
        <path d="M18.999,30 L13,30 L13,25.534 C9.887,24.558 7.441,22.112 6.466,18.999 L2,18.999 L2,13 L6.466,13 C7.442,9.888 9.888,7.442 13,6.466 L13,2 L18.999,2 L18.999,6.466 C22.112,7.441 24.558,9.887 25.534,13 L30,13 L30,18.999 L25.534,18.999 C24.559,22.112 22.112,24.559 18.999,25.534 L18.999,30 Z" id="Fill-1" fill-opacity="0.32" fill="#000000"></path>
        <path d="M16,22 C12.691,22 10,19.309 10,16 C10,12.691 12.691,10 16,10 C19.309,10 22,12.691 22,16 C22,19.309 19.309,22 16,22 Z M28,15 L23.931,15 C23.477,11.389 20.611,8.522 16.999,8.069 L16.999,4 L15,4 L15,8.069 C11.389,8.523 8.523,11.389 8.069,15 L4,15 L4,16.999 L8.069,16.999 C8.522,20.611 11.389,23.477 15,23.931 L15,28 L16.999,28 L16.999,23.931 C20.611,23.478 23.478,20.611 23.931,16.999 L28,16.999 L28,15 Z" id="Fill-3" fill="#FFFFFF"></path>
    </g>
</svg>