<?xml version="1.0" encoding="UTF-8" standalone="no"?>
<svg width="12px" height="12px" viewBox="0 0 12 12" version="1.1" xmlns="http://www.w3.org/2000/svg" xmlns:xlink="http://www.w3.org/1999/xlink">
    <!-- Generator: Sketch 50.2 (55047) - http://www.bohemiancoding.com/sketch -->
    <title>icons/search_small</title>
    <desc>Created with Sketch.</desc>
    <defs></defs>
    <g id="icons/search_small" stroke="none" stroke-width="1" fill="none" fill-rule="evenodd">
        <path d="M5.0005,7.5005 C3.6225,7.5005 2.5005,6.3785 2.5005,5.0005 C2.5005,3.6225 3.6225,2.5005 5.0005,2.5005 C6.3785,2.5005 7.5005,3.6225 7.5005,5.0005 C7.5005,6.3785 6.3785,7.5005 5.0005,7.5005 Z M11.0005,10.0005 L8.2805,7.2815 C8.7315,6.6335 9.0005,5.8495 9.0005,5.0005 C9.0005,2.7915 7.2095,1.0005 5.0005,1.0005 C2.7915,1.0005 1.0005,2.7915 1.0005,5.0005 C1.0005,7.2095 2.7915,9.0005 5.0005,9.0005 C5.8495,9.0005 6.6335,8.7325 7.2805,8.2815 L10.0005,11.0005 L11.0005,10.0005 Z" id="Fill-3" fill="#808080"></path>
    </g>
</svg>