<?xml version="1.0" encoding="UTF-8" standalone="no"?>
<svg width="26px" height="32px" viewBox="0 0 26 32" version="1.1" xmlns="http://www.w3.org/2000/svg" xmlns:xlink="http://www.w3.org/1999/xlink">
    <!-- Generator: Sketch 50.2 (55047) - http://www.bohemiancoding.com/sketch -->
    <title>cartografia/marker-repsol-sel-alt</title>
    <desc>Created with Sketch.</desc>
    <defs>
        <polygon id="path-1" points="0 0.0845285714 2.48124286 0.0845285714 2.48124286 0.721957143 0 0.721957143"></polygon>
        <polygon id="path-3" points="0.000528571429 0.0314285714 13.5664096 0.0314285714 13.5664096 5.88238571 0.000528571429 5.88238571"></polygon>
        <polygon id="path-5" points="0.0717835718 0.0455995129 13.6382857 0.0455995129 13.6382857 2.87468571 0.0717835718 2.87468571"></polygon>
    </defs>
    <g id="cartografia/marker-repsol-sel-alt" stroke="none" stroke-width="1" fill="none" fill-rule="evenodd">
        <path d="M4.514,4.513 C2.248,6.779 1,9.792 1,13 C1,21 11.518,30.344 11.518,30.344 C11.896,30.762 12.436,31 13,31 C13.564,31 14.104,30.762 14.482,30.342 C14.482,30.342 25,21 25,13 C25,9.795 23.752,6.781 21.484,4.513 C19.217,2.248 16.203,1 13,1 C9.799,1 6.785,2.248 4.514,4.513 Z" id="Fill-3" stroke="#FFFFFF" stroke-width="2" fill="#041E42"></path>
        <g id="Group" transform="translate(5.000000, 7.000000)">
            <g id="Group-3" transform="translate(0.000000, 5.540043)">
                <mask id="mask-2" fill="white">
                    <use xlink:href="#path-1"></use>
                </mask>
                <g id="Clip-2"></g>
                <path d="M2.38252857,0.721957143 C2.40267143,0.515242857 2.43495714,0.305242857 2.47995714,0.0919571429 L2.48124286,0.0845285714 C2.4751,0.0852428571 2.46924286,0.0861 2.46395714,0.0865285714 C2.14981429,0.118242857 1.65395714,0.155242857 1.28738571,0.202385714 C0.645671429,0.286957143 0.0619571429,0.3721 0.0131,0.430242857 C-0.119185714,0.586528571 0.759814286,0.7021 2.1001,0.719957143 C2.19167143,0.7211 2.28667143,0.721528571 2.38252857,0.721957143" id="Fill-1" fill="#FE8201" mask="url(#mask-2)"></path>
            </g>
            <g id="Group-6" transform="translate(0.000000, 0.111471)">
                <mask id="mask-4" fill="white">
                    <use xlink:href="#path-3"></use>
                </mask>
                <g id="Clip-5"></g>
                <path d="M9.12667143,0.0313857143 C7.01395714,0.0313857143 4.92795714,1.2281 3.64095714,2.97924286 C3.64095714,2.97924286 0.642242857,3.1941 0.485528571,3.46052857 C0.0119571429,4.3661 0.000528571429,5.88238571 0.000528571429,5.88238571 L0.00224285714,5.87738571 C0.00424285714,5.87124286 0.0081,5.86538571 0.0133857143,5.85881429 C0.0628142857,5.80067143 0.646242857,5.71552857 1.28767143,5.63095714 C1.65424286,5.58381429 2.15038571,5.54681429 2.46424286,5.5151 C2.46981429,5.51467143 2.4751,5.51381429 2.48124286,5.5131 L2.48124286,5.51352857 C3.52295714,5.41024286 5.50895714,5.26795714 6.64424286,5.23695714 C9.42724286,5.1601 11.8272429,5.18181429 13.4916714,5.25738571 C13.9749571,2.34767143 12.0675286,0.0313857143 9.12667143,0.0313857143" id="Fill-4" fill="#F5A712" mask="url(#mask-4)"></path>
            </g>
            <path d="M12.5108857,7.8319 C11.6543143,7.82332857 8.48731429,7.79861429 7.07945714,7.84361429 C7.0736,7.84361429 6.42588571,7.86675714 6.40617143,7.86675714 C4.88702857,7.9289 3.60017143,8.02575714 2.55245714,8.12904286 L2.55202857,8.12904286 C3.08531429,9.89961429 4.67045714,11.1114714 6.79717143,11.1114714 C9.03817143,11.1114714 11.2514571,9.7599 12.5108857,7.8319" id="Fill-7" fill="#DF1733"></path>
            <g id="Group-11" transform="translate(2.285714, 5.254329)">
                <mask id="mask-6" fill="white">
                    <use xlink:href="#path-5"></use>
                </mask>
                <g id="Clip-10"></g>
                <path d="M11.2078714,0.114542857 C9.54358571,0.0389714286 7.14344286,0.0164 4.36044286,0.0934 C3.2243,0.124257143 1.23687143,0.267114286 0.195585714,0.370257143 C0.1713,0.485971429 0.134014286,0.675971429 0.105157143,0.927257143 C0.105157143,0.932114286 0.104585714,0.937114286 0.104157143,0.942114286 C0.0940142857,1.02782857 0.0870142857,1.11311429 0.0817285714,1.19811429 C0.0817285714,1.20311429 0.0808714286,1.2094 0.0804428571,1.21482857 C0.0754428571,1.29782857 0.0728714286,1.37997143 0.0720142857,1.46111429 C0.0711571429,1.51225714 0.0728714286,1.56354286 0.0741571429,1.61482857 C0.0741571429,1.65825714 0.0741571429,1.70011429 0.0767285714,1.74211429 C0.0800142857,1.83268571 0.0858714286,1.92268571 0.0954428571,2.0104 C0.0971571429,2.03597143 0.101871429,2.06168571 0.104585714,2.08654286 C0.112728571,2.15468571 0.120871429,2.22468571 0.132157143,2.29125714 C0.136728571,2.31925714 0.142157143,2.3464 0.146728571,2.37354286 C0.158442857,2.43882857 0.1713,2.50397143 0.185585714,2.56754286 C0.191157143,2.59382857 0.1973,2.61868571 0.204014286,2.64354286 C0.220157143,2.71025714 0.237157143,2.77625714 0.256728571,2.84054286 C0.259157143,2.85225714 0.2623,2.86311429 0.265871429,2.87468571 C1.31415714,2.77154286 2.6013,2.67454286 4.12158571,2.61325714 C4.14015714,2.6124 4.78915714,2.58925714 4.79415714,2.5884 C6.20201429,2.54425714 9.36858571,2.56911429 10.2260143,2.57754286 C10.3624429,2.5784 10.4464429,2.57911429 10.4464429,2.57911429 C11.1660143,2.59082857 11.4598714,2.59697143 12.2095857,2.63654286 C12.5561571,2.65511429 13.1283,2.67697143 13.1590143,2.75211429 C13.1590143,2.7544 13.1593,2.75054286 13.1590143,2.7544 C13.1583,2.75682857 13.1571571,2.7584 13.1564429,2.76068571 L13.1568714,2.7614 C13.6308714,1.88482857 13.6378714,0.433114286 13.6378714,0.433114286 C13.6618714,0.307114286 12.7561571,0.184828571 11.2078714,0.114542857" id="Fill-9" fill="#FFFFFF" mask="url(#mask-6)"></path>
            </g>
            <path d="M15.4455857,8.00641429 C15.4145857,7.93041429 14.8425857,7.9087 14.4960143,7.89084286 C13.7463,7.85127143 13.4525857,7.84512857 12.7324429,7.83341429 C12.7324429,7.83341429 12.6481571,7.8327 12.5100143,7.83112857 C12.5100143,7.83112857 12.5093,7.83184286 12.5081571,7.83184286 L12.5108714,7.83184286 C12.3858714,8.0227 12.2518714,8.20812857 12.1093,8.38655714 L12.1101571,8.38655714 C14.0884429,8.32684286 15.3911571,8.1887 15.4455857,8.00884286 C15.4458714,8.00484286 15.4455857,8.00884286 15.4455857,8.00641429" id="Fill-12" fill="#D2D2D1"></path>
        </g>
    </g>
</svg>