<?xml version="1.0" encoding="UTF-8" standalone="no"?>
<svg width="30px" height="30px" viewBox="0 0 30 30" version="1.1" xmlns="http://www.w3.org/2000/svg" xmlns:xlink="http://www.w3.org/1999/xlink">
    <!-- Generator: Sketch 50.2 (55047) - http://www.bohemiancoding.com/sketch -->
    <title>icons/30px/negative/24hours</title>
    <desc>Created with Sketch.</desc>
    <defs>
        <polygon id="path-1" points="2.37512 0.2256 27.57512 0.2256 27.57512 25.425 2.37512 25.425"></polygon>
    </defs>
    <g id="icons/30px/negative/24hours" stroke="none" stroke-width="1" fill="none" fill-rule="evenodd">
        <g id="Group" transform="translate(0.000000, -1.000000)">
            <g id="Group-9" transform="translate(0.200000, 0.975000)">
                <g id="Group-2">
                    <path d="M25.07192,13.725 L22.62632,13.725 C22.12952,13.725 21.72632,13.3218 21.72632,12.825 C21.72632,12.3282 22.12952,11.925 22.62632,11.925 L25.07192,11.925 C25.56872,11.925 25.97192,12.3282 25.97192,12.825 C25.97192,13.3218 25.56872,13.725 25.07192,13.725 M19.28432,19.6482 C19.17992,19.7202 19.02512,19.755 18.81632,19.755 L18.56552,19.755 L18.56552,20.5194 C18.56552,20.7294 18.51992,20.8866 18.42752,20.9886 C18.33392,21.0918 18.20912,21.1434 18.05312,21.1434 C17.89952,21.1434 17.77712,21.0906 17.68232,20.985 C17.58872,20.8794 17.54192,20.7234 17.54192,20.5194 L17.54192,19.755 L15.48152,19.755 C15.22232,19.755 15.02672,19.6974 14.89712,19.5798 C14.76752,19.4622 14.70272,19.3014 14.70272,19.0998 C14.70272,19.0482 14.71232,18.9954 14.73152,18.9426 C14.75072,18.8886 14.77952,18.8322 14.81792,18.7734 C14.85512,18.7146 14.89592,18.6582 14.93672,18.603 C14.97752,18.549 15.02792,18.4818 15.08792,18.4026 L17.26232,15.495 C17.40392,15.303 17.52032,15.1638 17.61272,15.0786 C17.70392,14.9922 17.81432,14.949 17.94272,14.949 C18.35792,14.949 18.56552,15.1878 18.56552,15.663 L18.56552,18.837 L18.74312,18.837 C18.95192,18.837 19.12232,18.8658 19.24832,18.9234 C19.37672,18.981 19.44032,19.1058 19.44032,19.3002 C19.44032,19.4586 19.38872,19.575 19.28432,19.6482 M13.69952,11.4006 L13.69952,3.2166 C13.69952,2.7198 14.10272,2.3166 14.59952,2.3166 C15.09632,2.3166 15.49952,2.7198 15.49952,3.2166 L15.49952,11.4006 C15.49952,11.8974 15.09632,12.3006 14.59952,12.3006 C14.10272,12.3006 13.69952,11.8974 13.69952,11.4006 M14.14712,20.8998 C14.05832,20.9934 13.92272,21.0402 13.74272,21.0402 L10.72352,21.0402 C10.51952,21.0402 10.35872,20.9838 10.24472,20.8698 C10.12952,20.7558 10.07192,20.6226 10.07192,20.4702 C10.07192,20.3718 10.10912,20.241 10.18232,20.0778 C10.25672,19.9146 10.33712,19.7874 10.42472,19.695 C10.78832,19.317 11.11712,18.9942 11.40872,18.7242 C11.70152,18.4542 11.91032,18.2778 12.03632,18.1938 C12.26072,18.0354 12.44672,17.8758 12.59672,17.715 C12.74552,17.5554 12.85952,17.3922 12.93632,17.223 C13.01552,17.055 13.05392,16.8906 13.05392,16.7298 C13.05392,16.5534 13.01192,16.3986 12.92792,16.2594 C12.84512,16.1214 12.73112,16.0134 12.58832,15.9378 C12.44432,15.861 12.28832,15.8226 12.11912,15.8226 C11.76032,15.8226 11.47832,15.9798 11.27312,16.2942 C11.24672,16.3362 11.19992,16.4478 11.13632,16.6314 C11.07152,16.8138 10.99952,16.9542 10.91912,17.0526 C10.83872,17.151 10.71992,17.2002 10.56392,17.2002 C10.42712,17.2002 10.31432,17.1558 10.22312,17.0646 C10.13312,16.9758 10.08872,16.851 10.08872,16.6974 C10.08872,16.5066 10.13072,16.3098 10.21592,16.1058 C10.29992,15.8994 10.42592,15.7146 10.59512,15.549 C10.76312,15.381 10.97552,15.2466 11.23472,15.1446 C11.49272,15.0414 11.79632,14.991 12.14312,14.991 C12.56192,14.991 12.91832,15.0558 13.21352,15.1878 C13.40552,15.2742 13.57352,15.3954 13.71872,15.549 C13.86272,15.7002 13.97552,15.8778 14.05712,16.0794 C14.13752,16.2798 14.17712,16.4886 14.17712,16.7034 C14.17712,17.0442 14.09312,17.3514 13.92512,17.6298 C13.75712,17.907 13.58552,18.1242 13.41032,18.2814 C13.23512,18.4386 12.94232,18.6858 12.53072,19.0218 C12.11912,19.3578 11.83712,19.6194 11.68352,19.8042 C11.61872,19.8798 11.55152,19.9674 11.48312,20.0718 L13.62392,20.0718 C13.83752,20.0718 13.99952,20.115 14.11232,20.2026 C14.22392,20.2914 14.28032,20.409 14.28032,20.559 C14.28032,20.6946 14.23592,20.8074 14.14712,20.8998 M7.32392,13.725 L4.87712,13.725 C4.38032,13.725 3.97712,13.3218 3.97712,12.825 C3.97712,12.3282 4.38032,11.925 4.87712,11.925 L7.32392,11.925 C7.82072,11.925 8.22392,12.3282 8.22392,12.825 C8.22392,13.3218 7.82072,13.725 7.32392,13.725 M14.97512,0.225 C8.01632,0.225 2.37512,5.8662 2.37512,12.825 C2.37512,19.7838 8.01632,25.425 14.97512,25.425 C21.93392,25.425 27.57512,19.7838 27.57512,12.825 C27.57512,5.8662 21.93392,0.225 14.97512,0.225" id="Fill-7" fill="#E0DED9"></path>
                    <path d="M21.275,28.8 L1.7006,28.8 C1.2026,28.8 0.8006,28.3968 0.8006,27.9 C0.8006,27.4032 1.2026,27 1.7006,27 L21.275,27 C21.7718,27 22.175,27.4032 22.175,27.9 C22.175,28.3968 21.7718,28.8 21.275,28.8" id="Fill-1" fill="#E0DED9"></path>
                    <path d="M28.25,28.8 L24.5,28.8 C24.0032,28.8 23.6,28.3968 23.6,27.9 C23.6,27.4032 24.0032,27 24.5,27 L28.25,27 C28.7468,27 29.15,27.4032 29.15,27.9 C29.15,28.3968 28.7468,28.8 28.25,28.8" id="Fill-3" fill="#E0DED9"></path>
                    <polygon id="Fill-5" fill="#E0DED9" points="17.54144 18.83676 17.54144 16.45476 15.77744 18.83676"></polygon>
                    <mask id="mask-2" fill="white">
                        <use xlink:href="#path-1"></use>
                    </mask>
                    <g id="Clip-8"></g>
                </g>
            </g>
        </g>
    </g>
</svg>