<?xml version="1.0" encoding="utf-8"?>
<!-- Generator: Adobe Illustrator 16.0.0, SVG Export Plug-In . SVG Version: 6.00 Build 0)  -->
<!DOCTYPE svg PUBLIC "-//W3C//DTD SVG 1.1//EN" "http://www.w3.org/Graphics/SVG/1.1/DTD/svg11.dtd">
<svg version="1.1" id="Layer_1" xmlns="http://www.w3.org/2000/svg" xmlns:xlink="http://www.w3.org/1999/xlink" x="0px" y="0px"
	 width="30px" height="30px" viewBox="0 0 30 30" enable-background="new 0 0 30 30" xml:space="preserve">
<circle fill="#80D3F0" cx="24.185" cy="18.703" r="4.798"/>
<title>icons/30px/negative/auto-gas</title>
<desc>Created with Sketch.</desc>
<g id="icons_x2F_30px_x2F_negative_x2F_auto-gas">
	<g id="Group-3-Copy" transform="translate(0.000000, 3.000000)">
		<path id="Fill-1" fill="#E0DED9" d="M28.271,24.434c0.234,0,0.439,0.088,0.615,0.264s0.264,0.391,0.264,0.645
			c0,0.234-0.088,0.444-0.264,0.629c-0.176,0.187-0.381,0.279-0.615,0.279h-3.75c-0.234,0-0.436-0.093-0.6-0.279
			c-0.166-0.185-0.25-0.395-0.25-0.629c0-0.254,0.084-0.469,0.25-0.645c0.164-0.176,0.365-0.264,0.6-0.264H28.271z M27.451,12.436
			c-0.898-0.908-1.992-1.362-3.281-1.362c-0.41,0-0.816,0.059-1.216,0.176c-0.399,0.117-0.767,0.273-1.099,0.469
			c-0.254,0.156-0.492,0.333-0.718,0.527c-0.226,0.195-0.425,0.41-0.601,0.645l-0.029,0.029c-0.059,0.059-0.112,0.127-0.161,0.205
			s-0.093,0.146-0.132,0.205c0,0.02-0.004,0.035-0.015,0.043c-0.01,0.011-0.015,0.025-0.015,0.045
			c-0.098,0.156-0.18,0.316-0.249,0.483c-0.069,0.166-0.132,0.347-0.19,0.542c0,0.02-0.004,0.039-0.015,0.059
			c-0.01,0.02-0.015,0.039-0.015,0.059c-0.02,0.078-0.039,0.152-0.059,0.219c-0.02,0.069-0.029,0.133-0.029,0.191
			c0,0.039-0.005,0.068-0.015,0.088c-0.011,0.02-0.015,0.049-0.015,0.088c-0.02,0.078-0.029,0.166-0.029,0.264v0.293v0.293
			c0,0.098,0.01,0.186,0.029,0.264c0,0.039,0.004,0.068,0.015,0.088c0.01,0.02,0.015,0.049,0.015,0.088
			c0,0.059,0.01,0.122,0.029,0.19c0.02,0.069,0.039,0.142,0.059,0.22c0,0.02,0.005,0.039,0.015,0.059
			c0.011,0.02,0.015,0.039,0.015,0.059c0.059,0.195,0.121,0.376,0.19,0.542s0.151,0.327,0.249,0.483c0,0.02,0.005,0.034,0.015,0.044
			c0.011,0.011,0.015,0.024,0.015,0.044c0.039,0.059,0.083,0.127,0.132,0.205s0.103,0.146,0.161,0.205l0.029,0.029
			c0.176,0.234,0.375,0.449,0.601,0.645s0.454,0.371,0.688,0.527c0.352,0.195,0.729,0.352,1.128,0.469s0.806,0.176,1.216,0.176
			c1.289,0,2.383-0.455,3.281-1.362c0.898-0.909,1.348-1.997,1.348-3.267S28.35,13.345,27.451,12.436z M20.01,11.631V3.106
			c0-0.099-0.068-0.215-0.205-0.352c-0.137-0.137-0.244-0.205-0.322-0.205h-4.336c-0.917,0-1.719,0.317-2.402,0.952
			c-0.684,0.635-1.025,1.381-1.025,2.241v5.889H20.01z M9.58,6.24L8.555,9.083c-0.04,0.116-0.123,0.22-0.25,0.307
			C8.179,9.478,8.057,9.521,7.939,9.521H7.354l-1.611,4.688c0,0.02-0.005,0.043-0.015,0.073c-0.01,0.028-0.015,0.054-0.015,0.073
			c-0.039,0.117-0.069,0.229-0.088,0.337c-0.02,0.107-0.03,0.22-0.03,0.337c0,0.586,0.205,1.084,0.616,1.494
			c0.41,0.41,0.908,0.615,1.494,0.615c0.586,0,1.094-0.195,1.524-0.586c0.429-0.391,0.654-0.859,0.674-1.406V6.24H9.58z
			 M28.052,19.557c-1.063,1.063-2.358,1.596-3.882,1.596c-0.41,0-0.811-0.044-1.201-0.131c-0.391-0.089-0.762-0.221-1.113-0.396
			v4.541l-0.029,0.029c0.02,0.02,0.029,0.039,0.029,0.059v0.088c0,0.234-0.082,0.444-0.249,0.629
			c-0.166,0.187-0.376,0.279-0.63,0.279H0.879c-0.235,0-0.44-0.093-0.615-0.279C0.088,25.786,0,25.576,0,25.342
			c0-0.254,0.088-0.469,0.264-0.645c0.175-0.176,0.38-0.264,0.615-0.264h9.024v-6.123c-0.312,0.215-0.655,0.375-1.026,0.482
			c-0.371,0.108-0.761,0.162-1.171,0.162c-1.074,0-1.997-0.381-2.769-1.143s-1.158-1.689-1.158-2.783
			c0-0.176,0.015-0.357,0.044-0.542c0.03-0.185,0.064-0.366,0.103-0.542c0-0.02,0.005-0.049,0.015-0.088
			c0.01-0.039,0.025-0.068,0.043-0.088l2.96-8.76c0.078-0.176,0.195-0.322,0.352-0.44c0.156-0.116,0.331-0.175,0.527-0.175h2.285
			c0.312-1.035,0.932-1.91,1.86-2.623c0.928-0.713,1.987-1.069,3.179-1.069h4.336c0.605,0,1.152,0.249,1.641,0.746
			c0.488,0.499,0.732,1.05,0.732,1.656v7.675c0.352-0.176,0.723-0.308,1.113-0.395c0.391-0.089,0.791-0.132,1.201-0.132
			c1.523,0,2.818,0.532,3.882,1.597c1.065,1.064,1.597,2.348,1.597,3.852S29.117,18.491,28.052,19.557z"/>
		<path id="Combined-Shape" fill="#00BA61" d="M23.692,19.55c1.09,0.003,1.845-0.584,1.845-0.584c2.832-2.098,0.68-4.853,0.68-4.853
			l0.186-0.368c-2.377-0.419-2.916-0.198-2.916-0.198c-0.874,1.117-1.378,2.509-1.378,2.509l0.49,0.052
			c0.665,1.188-0.022,1.879-0.022,1.879c-0.458,0.458-0.982,0.4-1.264,0.32c-0.625-0.688-1.005-1.602-1.005-2.604
			c0-2.141,1.736-3.877,3.878-3.877c2.141,0,3.876,1.737,3.876,3.877s-1.735,3.877-3.876,3.877
			C24.018,19.58,23.854,19.57,23.692,19.55z"/>
	</g>
</g>
</svg>
