<?xml version="1.0" encoding="UTF-8" standalone="no"?>
<svg width="30px" height="30px" viewBox="0 0 30 30" version="1.1" xmlns="http://www.w3.org/2000/svg" xmlns:xlink="http://www.w3.org/1999/xlink">
    <!-- Generator: Sketch 50.2 (55047) - http://www.bohemiancoding.com/sketch -->
    <title>icons/30px/negative/burger-king</title>
    <desc>Created with Sketch.</desc>
    <defs></defs>
    <g id="icons/30px/negative/burger-king" stroke="none" stroke-width="1" fill="none" fill-rule="evenodd">
        <path d="M14.6191406,26.2421875 C14.4042958,26.2226562 14.1992197,26.2031251 14.0039062,26.1835938 C13.8085928,26.1640624 13.6132822,26.1347658 13.4179688,26.0957031 C12.1484312,25.861327 10.9863334,25.5000024 9.93164062,25.0117188 C8.8574165,24.5234351 7.89551206,23.9130896 7.04589844,23.1806641 C6.19628481,22.4482385 5.4589875,21.5937549 4.83398438,20.6171875 C4.1894499,19.6406201 3.66211143,18.5468811 3.25195312,17.3359375 C2.6660127,15.6171789 2.45117109,13.8984461 2.60742187,12.1796875 C2.783204,10.4413976 3.25683208,8.83008555 4.02832031,7.34570312 C4.79980854,5.8613207 5.83983721,4.55274004 7.1484375,3.41992188 C8.47656914,2.28710371 10.0097569,1.45703389 11.7480469,0.9296875 C12.9394591,0.578123242 14.1308534,0.387695459 15.3222656,0.358398438 C16.5136778,0.329101416 17.7148377,0.490232617 18.9257812,0.841796875 L18.9404297,0.841796875 C18.9501954,0.841796875 18.9648437,0.851562402 18.984375,0.87109375 C18.7304675,0.832031055 18.4863293,0.797851709 18.2519531,0.768554688 C18.017577,0.739257666 17.7734388,0.714843848 17.5195312,0.6953125 C16.4257758,0.597655762 15.346685,0.62206958 14.2822266,0.768554688 C13.2177681,0.915039795 12.1777395,1.21288838 11.1621094,1.66210938 C10.2050733,2.09179902 9.34570693,2.59960645 8.58398438,3.18554688 C7.80273047,3.7714873 7.11914355,4.42577764 6.53320312,5.1484375 C5.9472627,5.87109736 5.45898633,6.67187061 5.06835938,7.55078125 C4.67773242,8.44922324 4.3847666,9.40624492 4.18945312,10.421875 C3.87695156,12.0625082 3.86718604,13.6445236 4.16015625,15.1679688 C4.45312646,16.6914139 5.07812021,18.1367119 6.03515625,19.5039062 C6.0546876,19.5429689 6.07910142,19.5771483 6.10839844,19.6064453 L6.18164062,19.6796875 C6.20117197,19.7187502 6.22558579,19.7480468 6.25488281,19.7675781 C6.28417983,19.7871095 6.32812471,19.8261716 6.38671875,19.8847656 L6.38671875,14.9042969 C6.38671875,14.7871088 6.40136704,14.699219 6.43066406,14.640625 C6.45996108,14.582031 6.53320254,14.5429688 6.65039062,14.5234375 C6.90429814,14.4648435 7.16308462,14.3964848 7.42675781,14.3183594 C7.69043101,14.240234 7.96874854,14.1621098 8.26171875,14.0839844 L8.26171875,16.3398438 L8.27636719,16.3544922 C8.28613286,16.3642579 8.30078115,16.3691406 8.3203125,16.3691406 C8.3593752,16.2910152 8.40820283,16.2177738 8.46679688,16.1494141 C8.52539092,16.0810543 8.57421855,16.0078129 8.61328125,15.9296875 C8.86718877,15.5781232 9.11620972,15.231447 9.36035156,14.8896484 C9.60449341,14.5478499 9.85351436,14.2011736 10.1074219,13.8496094 C10.1855473,13.7519526 10.2880853,13.6542974 10.4150391,13.5566406 C10.5419928,13.4589839 10.6640619,13.3710941 10.78125,13.2929688 C10.9179694,13.2148434 11.0546868,13.1953123 11.1914062,13.234375 C11.3281257,13.2734377 11.4648431,13.3417964 11.6015625,13.4394531 C11.6992192,13.5566412 11.7529296,13.6787103 11.7626953,13.8056641 C11.772461,13.9326178 11.7480472,14.0644524 11.6894531,14.2011719 C11.6503904,14.2988286 11.6064456,14.3916011 11.5576172,14.4794922 C11.5087888,14.5673833 11.4550784,14.6503902 11.3964844,14.7285156 C11.1621082,15.0605485 10.9326183,15.3925765 10.7080078,15.7246094 C10.4833973,16.0566423 10.2441419,16.3886702 9.99023438,16.7207031 C10.2050792,16.8964853 10.4101553,17.067382 10.6054688,17.2333984 C10.8007822,17.3994149 10.9960928,17.5703116 11.1914062,17.7460938 C11.2500003,17.7851564 11.3085935,17.8339841 11.3671875,17.8925781 C11.4257815,17.9511722 11.4843747,17.9999998 11.5429688,18.0390625 C11.6601568,18.1562506 11.7382811,18.2832024 11.7773438,18.4199219 C11.8164064,18.5566413 11.7871099,18.6933587 11.6894531,18.8300781 C11.6308591,18.9667976 11.5527349,19.0986322 11.4550781,19.2255859 C11.3574214,19.3525397 11.2500006,19.4550777 11.1328125,19.5332031 C10.9570304,19.6894539 10.7812509,19.7578126 10.6054688,19.7382812 C10.4296866,19.7187499 10.2539071,19.6406257 10.078125,19.5039062 C9.78515479,19.2695301 9.4873062,19.0302747 9.18457031,18.7861328 C8.88183442,18.541991 8.57422031,18.29297 8.26171875,18.0390625 L8.26171875,19.1230469 C8.26171875,19.6503933 8.20312559,20.0019522 8.0859375,20.1777344 C7.96874941,20.3535165 7.65625254,20.5390615 7.1484375,20.734375 C7.28515693,20.8710944 7.41210879,20.9931635 7.52929688,21.1005859 C7.64648496,21.2080083 7.76367129,21.3105464 7.88085938,21.4082031 C8.62305059,22.0332062 9.4140583,22.5361309 10.2539062,22.9169922 C11.0937542,23.2978535 11.9824172,23.576171 12.9199219,23.7519531 C14.3652416,24.025392 15.7665948,24.0595713 17.1240234,23.8544922 C18.4814521,23.649413 19.7753845,23.1367229 21.0058594,22.3164062 C21.9238327,21.7109345 22.7148404,20.998051 23.3789062,20.1777344 C24.0429721,19.3574178 24.6093727,18.4589893 25.078125,17.4824219 C25.0976563,17.4433592 25.1171874,17.3945315 25.1367188,17.3359375 C25.1562501,17.2773435 25.1855467,17.2187503 25.2246094,17.1601562 C25.5761736,17.3554697 25.9326154,17.5507803 26.2939453,17.7460938 C26.6552752,17.9414072 27.031248,18.1464833 27.421875,18.3613281 C27.2851556,18.6152356 27.1582037,18.8642566 27.0410156,19.1083984 C26.9238275,19.3525403 26.7871102,19.5917957 26.6308594,19.8261719 C25.8105428,21.1933662 24.8242245,22.3603467 23.671875,23.3271484 C22.5195255,24.2939501 21.1816482,25.041013 19.6582031,25.5683594 C19.1503881,25.7246102 18.6425807,25.8564448 18.1347656,25.9638672 C17.6269506,26.0712896 17.1093776,26.1445311 16.5820312,26.1835938 C16.5234372,26.1835938 16.4746096,26.1884765 16.4355469,26.1982422 C16.3964842,26.2080079 16.3476565,26.2226562 16.2890625,26.2421875 L14.6191406,26.2421875 Z M16.9628906,22.2578125 C16.6894518,22.3164065 16.4306653,22.3505859 16.1865234,22.3603516 C15.9423816,22.3701172 15.7421883,22.3847655 15.5859375,22.4042969 C14.7265582,22.3847655 13.9404333,22.3066413 13.2275391,22.1699219 C12.5146449,22.0332024 11.8359407,21.7988298 11.1914063,21.4667969 L10.8398438,21.2324219 C10.7226557,21.1542965 10.6250004,21.0664067 10.546875,20.96875 C10.4101556,20.8320306 10.3515624,20.719727 10.3710938,20.6318359 C10.3906251,20.5439449 10.4882804,20.4609379 10.6640625,20.3828125 C11.4062537,20.1093736 12.143551,19.8261733 12.8759766,19.5332031 C13.6084021,19.2402329 14.3554649,18.9765637 15.1171875,18.7421875 C16.3476624,18.3515605 17.5781188,17.9804705 18.8085938,17.6289063 C20.0390687,17.277342 21.2695251,16.9160175 22.5,16.5449219 C22.6953135,16.4863278 22.890624,16.4375002 23.0859375,16.3984375 C23.281251,16.3593748 23.4765615,16.3105472 23.671875,16.2519531 C23.8671885,16.2128904 24.0039059,16.2324215 24.0820312,16.3105469 C24.1601566,16.3886723 24.1699222,16.5253896 24.1113281,16.7207031 C23.99414,17.0136733 23.8769537,17.3017564 23.7597656,17.5849609 C23.6425775,17.8681655 23.5058602,18.1367175 23.3496094,18.390625 C22.7636689,19.3085983 22.0507854,20.0507784 21.2109375,20.6171875 C20.3710896,21.1835966 19.4335989,21.6230453 18.3984375,21.9355469 L17.6953125,22.1113281 C17.4609363,22.1699222 17.2167981,22.2187498 16.9628906,22.2578125 Z M14.5605469,1.83789062 C14.8730484,1.79882793 15.170897,1.76953135 15.4541016,1.75 C15.7373061,1.73046865 15.966796,1.7109376 16.1425781,1.69140625 C16.9628947,1.7109376 17.7197231,1.78417905 18.4130859,1.91113281 C19.1064488,2.03808657 19.7656219,2.26757646 20.390625,2.59960938 C20.6250012,2.75586016 20.8496083,2.92187412 21.0644531,3.09765625 C21.2792979,3.27343838 21.484374,3.4589834 21.6796875,3.65429688 C21.8359383,3.79101631 21.8945314,3.9130854 21.8554688,4.02050781 C21.8164061,4.12793022 21.6894542,4.19140615 21.4746094,4.2109375 C20.2441345,4.42578232 19.013678,4.66992051 17.7832031,4.94335938 C16.5527282,5.21679824 15.3418028,5.52929512 14.1503906,5.88085938 C13.1738232,6.15429824 12.2021533,6.44726406 11.2353516,6.75976562 C10.2685499,7.07226719 9.29687988,7.37499854 8.3203125,7.66796875 C8.24218711,7.70703145 8.15918013,7.7265625 8.07128906,7.7265625 L7.79296875,7.7265625 C7.79296875,7.62890576 7.78808599,7.53125049 7.77832031,7.43359375 C7.76855464,7.33593701 7.7734374,7.24804727 7.79296875,7.16992188 C8.00781357,6.38866797 8.3398415,5.69531553 8.7890625,5.08984375 C9.2382835,4.48437197 9.78515303,3.93750244 10.4296875,3.44921875 C11.0546906,2.99999775 11.7138637,2.64843877 12.4072266,2.39453125 C13.1005894,2.14062373 13.8183557,1.95507871 14.5605469,1.83789062 Z M15.8496094,18.15625 C15.6542959,18.2343754 15.4541026,18.3076168 15.2490234,18.3759766 C15.0439443,18.4443363 14.8339854,18.4980467 14.6191406,18.5371094 L14.6191406,12.4433594 C14.6191406,12.3457026 14.6337889,12.2724612 14.6630859,12.2236328 C14.692383,12.1748044 14.7558589,12.1406251 14.8535156,12.1210937 C15.6152382,11.8867176 16.0400386,11.8037106 16.1279297,11.8720703 C16.2158208,11.94043 16.5234349,12.189451 17.0507812,12.6191406 C17.2851574,12.8144541 17.5146473,13.0195302 17.7392578,13.234375 C17.9638683,13.4492198 18.2031237,13.673827 18.4570312,13.9082031 C18.4570312,13.6152329 18.461914,13.3417981 18.4716797,13.0878906 C18.4814454,12.8339831 18.4765626,12.5800794 18.4570312,12.3261719 C18.4374999,11.8769509 18.4912103,11.5351574 18.6181641,11.3007812 C18.7451178,11.0664051 19.091794,10.8808601 19.6582031,10.7441406 C19.7558599,10.7050779 19.8632807,10.6708986 19.9804688,10.6416016 C20.0976568,10.6123045 20.2148432,10.5781252 20.3320312,10.5390625 L20.3320312,15.9296875 C20.3320312,16.3203145 20.2197277,16.6328113 19.9951172,16.8671875 C19.7705067,17.1015637 19.4628926,17.21875 19.0722656,17.21875 C18.9746089,17.21875 18.8769536,17.1943362 18.7792969,17.1455078 C18.6816401,17.0966794 18.5937504,17.042969 18.515625,16.984375 C18.2031234,16.7109361 17.9003921,16.4423841 17.6074219,16.1787109 C17.3144517,15.9150377 17.0117203,15.6464857 16.6992188,15.3730469 C16.6796874,15.3535155 16.6503908,15.3291017 16.6113281,15.2998047 C16.5722654,15.2705077 16.5332033,15.2363283 16.4941406,15.1972656 L16.4941406,17.1894531 C16.4941406,17.4238293 16.4404302,17.6240226 16.3330078,17.7900391 C16.2255854,17.9560555 16.0644542,18.0781246 15.8496094,18.15625 Z M24.4921875,14.0546875 C24.7070323,13.9570308 24.8339842,13.8642583 24.8730469,13.7763672 C24.9121096,13.6884761 24.9218751,13.5175794 24.9023437,13.2636719 L24.609375,13.3222656 C24.5117183,13.341797 24.4042975,13.3515625 24.2871094,13.3515625 C24.1503899,13.3710938 24.0380864,13.3369145 23.9501953,13.2490234 C23.8623042,13.1611324 23.8183594,13.0488288 23.8183594,12.9121094 C23.798828,12.7753899 23.7890625,12.6435553 23.7890625,12.5166016 C23.7890625,12.3896478 23.798828,12.2578132 23.8183594,12.1210938 C23.8183594,12.0820311 23.8330077,12.0429689 23.8623047,12.0039063 C23.8916017,11.9648436 23.9160155,11.9453125 23.9355469,11.9453125 C24.4042992,11.7890617 24.8730445,11.6474616 25.3417969,11.5205078 C25.8105492,11.3935541 26.2890601,11.2519539 26.7773437,11.0957031 C26.7773437,11.5839868 26.7822265,12.0576149 26.7919922,12.5166016 C26.8017579,12.9755882 26.7871096,13.4296853 26.7480469,13.8789063 C26.7480469,14.1328138 26.6699227,14.3476554 26.5136719,14.5234375 C26.3574211,14.6992196 26.1914071,14.8554681 26.015625,14.9921875 C25.566404,15.3046891 25.0927759,15.5488272 24.5947266,15.7246094 C24.0966772,15.9003915 23.583987,15.9882813 23.0566406,15.9882813 C22.4121062,16.0078126 21.8896504,15.8173848 21.4892578,15.4169922 C21.0888652,15.0165996 20.8593753,14.4941438 20.8007812,13.8496094 C20.7226559,12.7363226 21.0595666,11.715825 21.8115234,10.7880859 C22.5634803,9.86034692 23.5351503,9.30859463 24.7265625,9.1328125 C24.9609387,9.0937498 25.2050769,9.06933599 25.4589844,9.05957031 C25.7128919,9.04980464 25.9667956,9.09374951 26.2207031,9.19140625 C26.4746106,9.28906299 26.6357418,9.42089761 26.7041016,9.58691406 C26.7724613,9.75293052 26.7480475,9.95312383 26.6308594,10.1875 C26.4941399,10.4804702 26.3330087,10.6757808 26.1474609,10.7734375 C25.9619131,10.8710942 25.7128922,10.8906253 25.4003906,10.8320313 C24.9121069,10.7734372 24.3847685,10.8417959 23.8183594,11.0371094 C23.2519503,11.2324229 22.8906258,11.6621061 22.734375,12.3261719 C22.675781,12.5214854 22.6464844,12.7216787 22.6464844,12.9267578 C22.6464844,13.131837 22.6562499,13.3222647 22.6757812,13.4980469 C22.7343753,13.8105484 22.8759754,14.0302728 23.1005859,14.1572266 C23.3251964,14.2841803 23.5839829,14.3183597 23.8769531,14.2597656 C23.9941412,14.2207029 24.101562,14.1865236 24.1992187,14.1572266 C24.2968755,14.1279295 24.3945308,14.0937502 24.4921875,14.0546875 Z M18.5449219,9.19140625 C18.66211,9.15234355 18.7451169,9.09375039 18.7939453,9.015625 C18.8427737,8.93749961 18.8378909,8.82031328 18.7792969,8.6640625 C18.4277326,8.72265654 18.1982427,8.69824272 18.0908203,8.59082031 C17.9833979,8.4833979 17.9589841,8.25390801 18.0175781,7.90234375 C18.0371095,7.86328105 18.0566405,7.82910171 18.0761719,7.79980469 C18.0957032,7.77050767 18.1249998,7.75585938 18.1640625,7.75585938 C18.4570327,7.65820264 18.7646468,7.56543013 19.0869141,7.47753906 C19.4091813,7.389648 19.7363265,7.29687549 20.0683594,7.19921875 L20.0683594,8.078125 C20.0683594,8.17578174 20.0634766,8.27343701 20.0537109,8.37109375 C20.0439453,8.46875049 20.048828,8.56640576 20.0683594,8.6640625 C20.0878907,8.97656406 20.0292976,9.2402333 19.8925781,9.45507812 C19.7558587,9.66992295 19.5605481,9.85546797 19.3066406,10.0117188 C18.9941391,10.1679695 18.6767594,10.2998042 18.3544922,10.4072266 C18.032225,10.514649 17.6855487,10.5585938 17.3144531,10.5390625 C16.9238262,10.4804685 16.6113293,10.3193373 16.3769531,10.0556641 C16.142577,9.79199087 16.0156251,9.4648457 15.9960938,9.07421875 C15.9374997,8.2734335 16.1669896,7.56543276 16.6845703,6.95019531 C17.202151,6.33495786 17.8320275,5.96875059 18.5742188,5.8515625 C18.7695322,5.8124998 18.9648428,5.78808599 19.1601562,5.77832031 C19.3554697,5.76855464 19.5410147,5.80273398 19.7167969,5.88085938 C19.8730477,5.95898477 19.9658202,6.04687451 19.9951172,6.14453125 C20.0244142,6.24218799 20.0195314,6.36913984 19.9804688,6.52539062 C19.9023434,6.7207041 19.7998053,6.85253872 19.6728516,6.92089844 C19.5458978,6.98925815 19.3750011,7.0234375 19.1601562,7.0234375 C19.0234368,7.00390615 18.8769539,6.99902339 18.7207031,7.00878906 C18.5644523,7.01855474 18.4179694,7.04296855 18.28125,7.08203125 C17.890623,7.17968799 17.60254,7.39941235 17.4169922,7.74121094 C17.2314444,8.08300952 17.1874995,8.43945127 17.2851562,8.81054688 C17.3437503,9.0253917 17.4462883,9.17675737 17.5927734,9.26464844 C17.7392585,9.3525395 17.9199208,9.37695332 18.1347656,9.33789062 C18.1933597,9.31835928 18.2617184,9.29882822 18.3398438,9.27929688 C18.4179691,9.25976553 18.4863278,9.23046895 18.5449219,9.19140625 Z M8.05664062,10.0996094 C8.05664062,10.3144542 8.01757852,10.504882 7.93945312,10.6708984 C7.86132773,10.8369149 7.74414141,10.9882806 7.58789062,11.125 C7.90039219,11.2812508 8.1005855,11.4716786 8.18847656,11.6962891 C8.27636763,11.9208996 8.26171934,12.2089826 8.14453125,12.5605469 C8.06640586,12.8339857 7.93457124,13.0585929 7.74902344,13.234375 C7.56347563,13.4101571 7.34375127,13.537109 7.08984375,13.6152344 C6.71874814,13.7324225 6.34765811,13.844726 5.9765625,13.9521484 C5.60546689,14.0595708 5.23437686,14.1718744 4.86328125,14.2890625 C4.86328125,14.2499998 4.85839849,14.2060549 4.84863281,14.1572266 C4.83886714,14.1083982 4.83398438,14.0644533 4.83398438,14.0253906 L4.83398438,10.2460938 C4.83398438,10.148437 4.85351543,10.0703128 4.89257812,10.0117188 C4.93164082,9.95312471 4.99999951,9.9140626 5.09765625,9.89453125 C5.42968916,9.79687451 5.76659985,9.704102 6.10839844,9.61621094 C6.45019702,9.52831987 6.79687324,9.43554736 7.1484375,9.33789062 C7.44140771,9.27929658 7.66601484,9.31835869 7.82226562,9.45507812 C7.97851641,9.59179756 8.05664062,9.80663916 8.05664062,10.0996094 Z M6.12304688,12.296875 L6.12304688,13.0878906 C6.20117227,13.0488279 6.27929648,13.0195313 6.35742188,13 C6.43554727,12.9804687 6.51367148,12.9511721 6.59179688,12.9121094 C6.72851631,12.8535153 6.82617158,12.7558601 6.88476562,12.6191406 C6.94335967,12.4824212 6.9531252,12.3554693 6.9140625,12.2382812 C6.89453115,12.1796872 6.84570352,12.1259768 6.76757812,12.0771484 C6.68945273,12.0283201 6.63085957,12.0136718 6.59179688,12.0332031 C6.51367148,12.0527345 6.42089897,12.0625 6.31347656,12.0625 C6.20605415,12.0625 6.14257822,12.1406242 6.12304688,12.296875 Z M6.12304688,10.6269531 L6.12304688,11.3007812 C6.41601709,11.2226559 6.62109316,11.1347661 6.73828125,11.0371094 C6.85546934,10.9394526 6.89453145,10.8027353 6.85546875,10.6269531 C6.8359374,10.5683591 6.79687529,10.5146487 6.73828125,10.4658203 C6.67968721,10.4169919 6.63085957,10.3925781 6.59179688,10.3925781 C6.49414014,10.4121095 6.39648486,10.421875 6.29882812,10.421875 C6.20117139,10.421875 6.14257822,10.4902337 6.12304688,10.6269531 Z M23.9355469,8.72265625 C23.8378901,8.76171895 23.7451176,8.79101553 23.6572266,8.81054688 C23.5693355,8.83007822 23.4863285,8.8593748 23.4082031,8.8984375 C23.3886718,8.83984346 23.3789062,8.79101582 23.3789062,8.75195312 L23.3789062,8.60546875 C23.3789062,7.98046563 23.383789,7.35058911 23.3935547,6.71582031 C23.4033204,6.08105151 23.3984376,5.451175 23.3789062,4.82617188 C23.3789062,4.72851514 23.3984373,4.65527368 23.4375,4.60644531 C23.4765627,4.55761694 23.5351559,4.51367207 23.6132812,4.47460938 C23.9062515,4.41601533 24.1894518,4.34765664 24.4628906,4.26953125 C24.7363295,4.19140586 25.0097643,4.10351611 25.2832031,4.00585938 C25.4785166,3.94726533 25.6689444,3.91796875 25.8544922,3.91796875 C26.04004,3.91796875 26.2109367,4.0058585 26.3671875,4.18164062 C26.562501,4.35742275 26.6699218,4.54785054 26.6894531,4.75292969 C26.7089845,4.95800884 26.6796879,5.16796768 26.6015625,5.3828125 C26.5429685,5.55859463 26.469727,5.71972583 26.3818359,5.86621094 C26.2939449,6.01269604 26.2011724,6.17382725 26.1035156,6.34960938 C26.1621097,6.42773477 26.2402339,6.52050728 26.3378906,6.62792969 C26.4355474,6.7353521 26.5332026,6.83789014 26.6308594,6.93554688 C26.7675788,7.09179766 26.8310547,7.24804609 26.8212891,7.40429688 C26.8115234,7.56054766 26.7187509,7.72656162 26.5429688,7.90234375 C26.3671866,8.05859453 26.2011727,8.14160151 26.0449219,8.15136719 C25.8886711,8.16113286 25.7421882,8.08789141 25.6054688,7.93164063 C25.4296866,7.79492119 25.2685554,7.63867275 25.1220703,7.46289063 C24.9755852,7.2871085 24.814454,7.111329 24.6386719,6.93554688 L24.6386719,7.81445313 C24.6386719,8.08789199 24.5898442,8.2880853 24.4921875,8.41503906 C24.3945308,8.54199282 24.2089857,8.64453086 23.9355469,8.72265625 Z M24.6386719,5.265625 L24.6386719,6.05664062 L24.9462891,5.95410156 C25.0341801,5.92480454 25.1171871,5.8906252 25.1953125,5.8515625 C25.3125006,5.79296846 25.4003903,5.70996147 25.4589844,5.60253906 C25.5175784,5.49511665 25.5371095,5.37304756 25.5175781,5.23632812 C25.5175781,5.13867139 25.4882815,5.0556644 25.4296875,4.98730469 C25.3710935,4.91894497 25.2832037,4.90429668 25.1660156,4.94335938 C25.0683589,4.96289072 24.9560553,4.97265625 24.8291016,4.97265625 C24.7021478,4.97265625 24.6386719,5.07031152 24.6386719,5.265625 Z M12.7441406,11.9746094 C12.6660152,11.9941407 12.5976565,12.0136718 12.5390625,12.0332031 C12.4804685,12.0527345 12.4023442,12.0820311 12.3046875,12.1210938 L12.3046875,8.078125 C12.3046875,7.96093691 12.3193358,7.87304717 12.3486328,7.81445313 C12.3779298,7.75585908 12.4511713,7.71679697 12.5683594,7.69726563 C12.8417982,7.61914023 13.115233,7.53613325 13.3886719,7.44824219 C13.6621107,7.36035112 13.9355455,7.27734414 14.2089844,7.19921875 C14.4042979,7.14062471 14.5947256,7.11132813 14.7802734,7.11132813 C14.9658212,7.11132813 15.1464835,7.18945234 15.3222656,7.34570313 C15.4980478,7.52148525 15.595703,7.7167958 15.6152344,7.93164063 C15.6347657,8.14648545 15.6152347,8.35156152 15.5566406,8.546875 C15.4980466,8.72265713 15.4199224,8.88867109 15.3222656,9.04492188 C15.2246089,9.20117266 15.1269536,9.36718662 15.0292969,9.54296875 C15.1074223,9.62109414 15.195312,9.71386665 15.2929688,9.82128906 C15.3906255,9.92871147 15.4882808,10.0312495 15.5859375,10.1289063 C15.7226569,10.285157 15.7812501,10.4365227 15.7617188,10.5830078 C15.7421874,10.7294929 15.6542977,10.8906241 15.4980469,11.0664063 C15.3222647,11.2421884 15.1562508,11.3349609 15,11.3447266 C14.8437492,11.3544922 14.6972663,11.2910163 14.5605469,11.1542969 C14.4824215,11.0761715 14.4042973,10.9931645 14.3261719,10.9052734 C14.2480465,10.8173824 14.1699223,10.7343754 14.0917969,10.65625 C14.0136715,10.5781246 13.9355473,10.4951176 13.8574219,10.4072266 C13.7792965,10.3193355 13.6914067,10.2167975 13.59375,10.0996094 L13.59375,10.8320313 C13.59375,11.2226582 13.5449224,11.4863274 13.4472656,11.6230469 C13.3496089,11.7597663 13.1152362,11.8769526 12.7441406,11.9746094 Z M13.59375,8.57617187 L13.59375,9.30859375 C13.7304694,9.23046836 13.8623041,9.16699243 13.9892578,9.11816406 C14.1162116,9.06933569 14.2187496,9.00585977 14.296875,8.92773437 C14.3945317,8.84960898 14.4531249,8.74218818 14.4726562,8.60546875 C14.4921876,8.46874932 14.4726565,8.36132852 14.4140625,8.28320312 C14.3359371,8.16601504 14.2529301,8.1171874 14.1650391,8.13671875 C14.077148,8.1562501 13.9843755,8.17578115 13.8867188,8.1953125 C13.789062,8.21484385 13.7109378,8.24902319 13.6523438,8.29785156 C13.5937497,8.34667993 13.5742187,8.43945244 13.59375,8.57617187 Z M13.3007812,18.9472656 C13.1445305,19.0058597 12.9833993,19.0595701 12.8173828,19.1083984 C12.6513664,19.1572268 12.4707041,19.2011717 12.2753906,19.2402344 L12.2753906,13.7910156 C12.2753906,13.5175768 12.3339838,13.2929696 12.4511719,13.1171875 C12.56836,12.9414054 12.7441395,12.804688 12.9785156,12.7070312 C13.1542978,12.6484372 13.3398428,12.589844 13.5351562,12.53125 C13.7304697,12.472656 13.9355458,12.4140628 14.1503906,12.3554687 L14.1503906,17.7753906 C14.1503906,18.1074235 14.0820319,18.3613272 13.9453125,18.5371094 C13.8085931,18.7128915 13.5937515,18.8496089 13.3007812,18.9472656 Z M8.52539062,9.10351563 C8.52539062,9.02539023 8.54003892,8.96679707 8.56933594,8.92773438 C8.59863296,8.88867168 8.65234336,8.8593751 8.73046875,8.83984375 C8.82812549,8.8203124 8.92578076,8.79589858 9.0234375,8.76660156 C9.12109424,8.73730454 9.22851504,8.71289072 9.34570312,8.69335938 C9.50195391,8.67382803 9.61425747,8.68847632 9.68261719,8.73730469 C9.7509769,8.78613306 9.79492178,8.89843662 9.81445312,9.07421875 C9.83398447,9.19140684 9.83886724,9.31347593 9.82910156,9.44042969 C9.81933589,9.56738345 9.81445312,9.68945254 9.81445312,9.80664063 L9.81445312,11.59375 C9.81445312,11.6914067 9.88281182,11.7499999 10.0195312,11.7695313 C10.1562507,11.7890626 10.2929681,11.7500005 10.4296875,11.6523438 C10.5664069,11.554687 10.6445312,11.4472662 10.6640625,11.3300781 L10.6640625,8.60546875 C10.6445312,8.46874932 10.6591794,8.36132852 10.7080078,8.28320312 C10.7568362,8.20507773 10.8593742,8.1562501 11.015625,8.13671875 C11.0937504,8.13671875 11.1767574,8.12207046 11.2646484,8.09277344 C11.3525395,8.06347642 11.4355465,8.0390626 11.5136719,8.01953125 C11.6503913,7.9999999 11.7529293,8.02441372 11.8212891,8.09277344 C11.8896488,8.16113315 11.9238281,8.26367119 11.9238281,8.40039063 L11.9238281,9.77734375 C11.9238281,10.2460961 11.9140626,10.7148414 11.8945312,11.1835938 C11.8945312,11.3203132 11.8652347,11.4521478 11.8066406,11.5791016 C11.7480466,11.7060553 11.6796879,11.8183589 11.6015625,11.9160156 C11.2499982,12.2675799 10.8691427,12.5263664 10.4589844,12.6923828 C10.0488261,12.8583993 9.58984629,12.9023441 9.08203125,12.8242188 C8.90624912,12.7851561 8.7744145,12.7070318 8.68652344,12.5898438 C8.59863237,12.4726557 8.54492197,12.3261728 8.52539062,12.1503906 L8.52539062,9.10351563 Z M21.6796875,6.671875 C21.8945323,6.61328096 22.0996084,6.55957056 22.2949219,6.51074219 C22.4902354,6.46191382 22.705077,6.39843789 22.9394531,6.3203125 C22.9394531,6.43750059 22.9443359,6.55468691 22.9541016,6.671875 C22.9638672,6.78906309 22.9492189,6.89648389 22.9101562,6.99414063 C22.8906249,7.07226602 22.84668,7.15039023 22.7783203,7.22851563 C22.7099606,7.30664102 22.6464847,7.38476523 22.5878906,7.46289063 C22.5292966,7.50195332 22.4609379,7.5312499 22.3828125,7.55078125 L22.1484375,7.609375 C21.89453,7.68750039 21.7480471,7.75585908 21.7089844,7.81445313 C21.6699217,7.87304717 21.6699217,8.04882666 21.7089844,8.34179688 C21.8261725,8.32226553 21.938476,8.29296895 22.0458984,8.25390625 C22.1533208,8.21484355 22.2656244,8.18554697 22.3828125,8.16601562 C22.4804692,8.12695293 22.5830073,8.09277358 22.6904297,8.06347656 C22.7978521,8.03417954 22.9003901,8.0000002 22.9980469,7.9609375 C23.115235,8.27343906 23.1201177,8.53222554 23.0126953,8.73730469 C22.9052729,8.94238384 22.7050796,9.08398398 22.4121094,9.16210938 L21.4160156,9.45507813 C21.0839827,9.55273486 20.7421893,9.65039014 20.390625,9.74804688 L20.390625,5.67578125 C20.390625,5.57812451 20.4052733,5.50488306 20.4345703,5.45605469 C20.4638673,5.40722632 20.5371088,5.36328145 20.6542969,5.32421875 C21.0058611,5.22656201 21.3623029,5.12402397 21.7236328,5.01660156 C22.0849627,4.90917915 22.4414045,4.80664111 22.7929688,4.70898438 C22.8320314,4.70898438 22.8710936,4.70410161 22.9101562,4.69433594 C22.9492189,4.68457026 22.9882811,4.66992197 23.0273438,4.65039063 C23.1054691,5.00195488 23.0957036,5.27050688 22.9980469,5.45605469 C22.9003901,5.64160249 22.6855485,5.78320264 22.3535156,5.88085938 C22.3144529,5.90039072 22.2753908,5.91503901 22.2363281,5.92480469 C22.1972654,5.93457036 22.1582033,5.93945313 22.1191406,5.93945313 C21.8652331,6.03710986 21.7187502,6.11523408 21.6796875,6.17382813 C21.6406248,6.23242217 21.6406248,6.39843613 21.6796875,6.671875 Z M28.9453125,29.3769531 L25.1367188,29.3769531 C24.8828112,29.3769531 24.6728524,29.2841806 24.5068359,29.0986328 C24.3408195,28.913085 24.2578125,28.6933606 24.2578125,28.4394531 C24.2578125,28.1855456 24.3408195,27.970704 24.5068359,27.7949219 C24.6728524,27.6191397 24.8828112,27.53125 25.1367188,27.53125 L28.9453125,27.53125 C29.1796887,27.53125 29.3847647,27.6191397 29.5605469,27.7949219 C29.736329,27.970704 29.8242188,28.1855456 29.8242188,28.4394531 C29.8242188,28.6933606 29.736329,28.913085 29.5605469,29.0986328 C29.3847647,29.2841806 29.1796887,29.3769531 28.9453125,29.3769531 Z M21.5332031,29.3769531 L1.0546875,29.3769531 C0.820311328,29.3769531 0.615235254,29.2841806 0.439453125,29.0986328 C0.263670996,28.913085 0.17578125,28.6933606 0.17578125,28.4394531 C0.17578125,28.1855456 0.263670996,27.970704 0.439453125,27.7949219 C0.615235254,27.6191397 0.820311328,27.53125 1.0546875,27.53125 L21.5332031,27.53125 C21.7871106,27.53125 21.9970695,27.6191397 22.1630859,27.7949219 C22.3291024,27.970704 22.4121094,28.1855456 22.4121094,28.4394531 C22.4121094,28.6933606 22.3291024,28.913085 22.1630859,29.0986328 C21.9970695,29.2841806 21.7871106,29.3769531 21.5332031,29.3769531 Z" id="" fill="#E0DED9"></path>
    </g>
</svg>