<?xml version="1.0" encoding="utf-8"?>
<!-- Generator: Adobe Illustrator 16.0.0, SVG Export Plug-In . SVG Version: 6.00 Build 0)  -->
<!DOCTYPE svg PUBLIC "-//W3C//DTD SVG 1.1//EN" "http://www.w3.org/Graphics/SVG/1.1/DTD/svg11.dtd">
<svg version="1.1" id="Layer_1" xmlns="http://www.w3.org/2000/svg" xmlns:xlink="http://www.w3.org/1999/xlink" x="0px" y="0px"
	 width="30px" height="30px" viewBox="0 0 30 30" enable-background="new 0 0 30 30" xml:space="preserve">
<circle fill="#004F7C" cx="24.377" cy="18.102" r="4.798"/>
<polygon fill="#FFBF0D" points="24.492,15.26 25.342,17.018 27.275,17.281 25.869,18.658 26.191,20.562 24.492,19.654 
	22.764,20.562 23.086,18.658 21.709,17.281 23.613,17.018 "/>
<title>icons/30px/negative/premium-gas</title>
<desc>Created with Sketch.</desc>
<g id="icons_x2F_30px_x2F_negative_x2F_premium-gas">
	<g id="Group" transform="translate(0.000000, 3.000000)">
		<path id="_xE922_" fill="#E0DED9" d="M28.447,23.832c0.234,0,0.439,0.088,0.615,0.264s0.264,0.391,0.264,0.645
			c0,0.234-0.088,0.444-0.264,0.63s-0.381,0.278-0.615,0.278h-3.75c-0.234,0-0.435-0.093-0.601-0.278s-0.249-0.396-0.249-0.63
			c0-0.254,0.083-0.469,0.249-0.645s0.366-0.264,0.601-0.264H28.447z M29.824,15.102c0,1.504-0.532,2.788-1.597,3.853
			s-2.358,1.597-3.882,1.597c-0.41,0-0.811-0.044-1.201-0.132s-0.762-0.22-1.113-0.396v4.541l-0.029,0.029
			c0.02,0.02,0.029,0.039,0.029,0.059v0.088c0,0.234-0.083,0.444-0.249,0.63s-0.376,0.278-0.63,0.278H1.055
			c-0.234,0-0.439-0.093-0.615-0.278s-0.264-0.396-0.264-0.63c0-0.254,0.088-0.469,0.264-0.645s0.381-0.264,0.615-0.264h9.023
			v-6.123c-0.312,0.215-0.654,0.376-1.025,0.483s-0.762,0.161-1.172,0.161c-1.074,0-1.997-0.381-2.769-1.143
			s-1.157-1.689-1.157-2.783c0-0.176,0.015-0.356,0.044-0.542s0.063-0.366,0.103-0.542c0-0.02,0.005-0.049,0.015-0.088
			s0.024-0.068,0.044-0.088l2.959-8.76c0.078-0.176,0.195-0.322,0.352-0.439s0.332-0.176,0.527-0.176h2.285
			c0.312-1.035,0.933-1.909,1.86-2.622s1.987-1.069,3.179-1.069h4.336c0.605,0,1.152,0.249,1.641,0.747s0.732,1.05,0.732,1.655
			v7.676c0.352-0.176,0.723-0.308,1.113-0.396s0.791-0.132,1.201-0.132c1.523,0,2.817,0.532,3.882,1.597
			S29.824,13.598,29.824,15.102z M10.078,5.639H9.756L8.73,8.48C8.691,8.598,8.608,8.7,8.481,8.788S8.232,8.92,8.115,8.92H7.529
			l-1.611,4.688c0,0.02-0.005,0.044-0.015,0.073s-0.015,0.054-0.015,0.073c-0.039,0.117-0.068,0.229-0.088,0.337
			s-0.029,0.22-0.029,0.337c0,0.586,0.205,1.084,0.615,1.494s0.908,0.615,1.494,0.615s1.094-0.195,1.523-0.586
			s0.654-0.859,0.674-1.406V5.639z M11.895,11.029h8.291V2.504c0-0.098-0.068-0.215-0.205-0.352s-0.244-0.205-0.322-0.205h-4.336
			c-0.918,0-1.719,0.317-2.402,0.952s-1.025,1.382-1.025,2.241V11.029z M28.975,15.102c0-1.27-0.449-2.358-1.348-3.267
			s-1.992-1.362-3.281-1.362c-0.41,0-0.815,0.059-1.216,0.176s-0.767,0.273-1.099,0.469c-0.254,0.156-0.493,0.332-0.718,0.527
			s-0.425,0.41-0.601,0.645l-0.029,0.029c-0.059,0.059-0.112,0.127-0.161,0.205s-0.093,0.146-0.132,0.205
			c0,0.02-0.005,0.034-0.015,0.044s-0.015,0.024-0.015,0.044c-0.098,0.156-0.181,0.317-0.249,0.483s-0.132,0.347-0.19,0.542
			c0,0.02-0.005,0.039-0.015,0.059s-0.015,0.039-0.015,0.059c-0.02,0.078-0.039,0.151-0.059,0.22s-0.029,0.132-0.029,0.19
			c0,0.039-0.005,0.068-0.015,0.088s-0.015,0.049-0.015,0.088c-0.02,0.078-0.029,0.166-0.029,0.264v0.586
			c0,0.098,0.01,0.186,0.029,0.264c0,0.039,0.005,0.068,0.015,0.088s0.015,0.049,0.015,0.088c0,0.059,0.01,0.122,0.029,0.19
			s0.039,0.142,0.059,0.22c0,0.02,0.005,0.039,0.015,0.059s0.015,0.039,0.015,0.059c0.059,0.195,0.122,0.376,0.19,0.542
			s0.151,0.327,0.249,0.483c0,0.02,0.005,0.034,0.015,0.044s0.015,0.024,0.015,0.044c0.039,0.059,0.083,0.127,0.132,0.205
			s0.103,0.146,0.161,0.205l0.029,0.029c0.176,0.234,0.376,0.449,0.601,0.645s0.454,0.371,0.688,0.527
			c0.352,0.195,0.728,0.352,1.128,0.469s0.806,0.176,1.216,0.176c1.289,0,2.383-0.454,3.281-1.362S28.975,16.371,28.975,15.102z"/>
	</g>
</g>
</svg>
