<?xml version="1.0" encoding="UTF-8" standalone="no"?>
<svg width="30px" height="30px" viewBox="0 0 30 30" version="1.1" xmlns="http://www.w3.org/2000/svg" xmlns:xlink="http://www.w3.org/1999/xlink">
    <!-- Generator: Sketch 50.2 (55047) - http://www.bohemiancoding.com/sketch -->
    <title>icons/30px/negative/shop</title>
    <desc>Created with Sketch.</desc>
    <defs></defs>
    <g id="icons/30px/negative/shop" stroke="none" stroke-width="1" fill="none" fill-rule="evenodd">
        <path d="M25.7226562,15.578125 C25.7226562,15.9882833 25.644532,16.4326148 25.4882812,16.9111328 C25.3320305,17.3896508 25.1171889,17.8632789 24.84375,18.3320312 C24.5703111,18.7812522 24.2480487,19.1962872 23.8769531,19.5771484 C23.5058575,19.9580097 23.125002,20.2656238 22.734375,20.5 L16.4941406,24.3964844 C16.3378898,24.4746098 16.1914069,24.5283202 16.0546875,24.5576172 C15.9179681,24.5869142 15.8007817,24.6015625 15.703125,24.6015625 L15.5566406,24.6015625 L15.3808594,24.5429688 L14.7070312,24.2792969 L13.9160156,24.6015625 L13.6816406,24.6015625 C13.5839839,24.6015625 13.4667976,24.591797 13.3300781,24.5722656 C13.1933587,24.5527343 13.0664068,24.5039066 12.9492188,24.4257812 L6.65039062,20.4707031 C6.24023232,20.236327 5.85449399,19.9335956 5.49316406,19.5625 C5.13183413,19.1914044 4.81445449,18.7714867 4.54101562,18.3027344 C4.24804541,17.8535134 4.02832104,17.3896508 3.88183594,16.9111328 C3.73535083,16.4326148 3.66210938,15.9785178 3.66210938,15.5488281 L3.66210938,9.42578125 C3.66210938,9.23046777 3.72070254,9.03027446 3.83789062,8.82519531 C3.95507871,8.62011616 4.11132715,8.45898496 4.30664062,8.34179688 L4.39453125,8.3125 L5.18554688,8.01953125 L8.87695312,6.05664062 C8.85742178,5.90038984 8.84277349,5.75390693 8.83300781,5.6171875 C8.82324214,5.48046807 8.81835938,5.33398516 8.81835938,5.17773438 C8.81835938,3.98632217 9.14550454,2.97559009 9.79980469,2.14550781 C10.4541048,1.31542554 11.2499953,0.900390625 12.1875,0.900390625 C12.695315,0.900390625 13.1689431,1.02734248 13.6083984,1.28125 C14.0478538,1.53515752 14.4238266,1.87695098 14.7363281,2.30664062 C15.0488297,1.87695098 15.4248025,1.53515752 15.8642578,1.28125 C16.3037131,1.02734248 16.7675757,0.900390625 17.2558594,0.900390625 C18.2128954,0.900390625 19.0185514,1.31054277 19.6728516,2.13085938 C20.3271517,2.95117598 20.6542969,3.96679082 20.6542969,5.17773438 C20.6542969,5.33398516 20.6494141,5.48535083 20.6396484,5.63183594 C20.6298828,5.77832104 20.6152345,5.91992119 20.5957031,6.05664062 L24.1992188,8.01953125 L25.078125,8.34179688 C25.2734385,8.45898496 25.4296869,8.6152334 25.546875,8.81054688 C25.6640631,9.00586035 25.7226562,9.19140537 25.7226562,9.3671875 L25.7226562,15.578125 Z M17.2558594,2.74609375 C17.0214832,2.74609375 16.8066416,2.82910073 16.6113281,2.99511719 C16.4160146,3.16113364 16.2500007,3.37109248 16.1132812,3.625 L18.8085938,5.11914062 C18.7890624,4.47460615 18.6279312,3.91797109 18.3251953,3.44921875 C18.0224594,2.98046641 17.6660177,2.74609375 17.2558594,2.74609375 Z M16.5234375,5.96875 L15.7617188,5.52929688 C15.7617188,5.66601631 15.776367,5.80273369 15.8056641,5.93945312 C15.8349611,6.07617256 15.8691404,6.20312441 15.9082031,6.3203125 L16.5234375,5.96875 Z M12.1875,2.74609375 C11.796873,2.74609375 11.4501968,2.97558364 11.1474609,3.43457031 C10.844725,3.89355698 10.6835938,4.44530928 10.6640625,5.08984375 L13.359375,3.65429688 C13.2031242,3.38085801 13.0273447,3.16113364 12.8320312,2.99511719 C12.6367178,2.82910073 12.4218762,2.74609375 12.1875,2.74609375 Z M13.7109375,5.52929688 L12.7734375,6.05664062 L13.4765625,6.46679688 C13.5351565,6.31054609 13.5839842,6.15918042 13.6230469,6.01269531 C13.6621096,5.86621021 13.6914062,5.705079 13.7109375,5.52929688 Z M8.14453125,11.7988281 C8.14453125,11.7402341 8.14941401,11.6816409 8.15917969,11.6230469 C8.16894536,11.5644528 8.18359365,11.4960941 8.203125,11.4179688 L5.65429688,9.8359375 L5.5078125,9.89453125 L5.5078125,15.578125 C5.5078125,15.8320325 5.5615229,16.1152328 5.66894531,16.4277344 C5.77636772,16.7402359 5.9277334,17.0527328 6.12304688,17.3652344 C6.3378917,17.6972673 6.57226436,17.9999986 6.82617188,18.2734375 C7.08007939,18.5468764 7.34374863,18.7714835 7.6171875,18.9472656 L8.14453125,19.2695312 L8.14453125,11.7988281 Z M9.55078125,10.0996094 L11.015625,9.22070312 C10.7031234,9.08398369 10.4199231,8.89355591 10.1660156,8.64941406 C9.91210811,8.40527222 9.68750098,8.12695469 9.4921875,7.81445312 L7.55859375,8.86914062 L9.55078125,10.0996094 Z M13.7695312,22.6679688 L13.7695312,14.9042969 L11.6601562,13.5859375 L11.25,13.3222656 L11.25,21.203125 L13.6816406,22.7265625 L13.7695312,22.6679688 Z M14.6777344,13.2929688 L16.7578125,12.0039062 L14.5898438,10.7441406 L12.5097656,11.9453125 L14.6777344,13.2929688 Z M17.9589844,21.3203125 L17.9589844,13.4394531 L15.6445312,14.9042969 L15.6445312,22.6679688 L15.703125,22.7265625 L17.9589844,21.3203125 Z M18.28125,9.27929688 L19.7460938,10.1582031 L21.8261719,8.86914062 L19.9511719,7.81445312 C19.7363271,8.16601738 19.4873061,8.46874873 19.2041016,8.72265625 C18.920897,8.97656377 18.6132829,9.16210879 18.28125,9.27929688 Z M23.8769531,15.578125 L23.8476562,15.578125 L23.8476562,9.89453125 L23.7304688,9.8359375 L21.0058594,11.5351562 C21.0058594,11.5742189 21.0107421,11.6181638 21.0205078,11.6669922 C21.0302735,11.7158206 21.0351562,11.7597654 21.0351562,11.7988281 L21.0351562,19.3867188 L21.7382812,18.9472656 C22.0312515,18.7714835 22.3046862,18.5468764 22.5585938,18.2734375 C22.8125013,17.9999986 23.0468739,17.6972673 23.2617188,17.3652344 C23.4570322,17.0527328 23.6083979,16.7402359 23.7158203,16.4277344 C23.8232427,16.1152328 23.8769531,15.8320325 23.8769531,15.578125 Z M21.5332031,27.0039062 C21.7675793,27.0039062 21.9726554,27.0966788 22.1484375,27.2822266 C22.3242196,27.4677744 22.4121094,27.6777332 22.4121094,27.9121094 C22.4121094,28.1660169 22.3242196,28.3857413 22.1484375,28.5712891 C21.9726554,28.7568369 21.7675793,28.8496094 21.5332031,28.8496094 L1.0546875,28.8496094 C0.820311328,28.8496094 0.615235254,28.7568369 0.439453125,28.5712891 C0.263670996,28.3857413 0.17578125,28.1660169 0.17578125,27.9121094 C0.17578125,27.6582019 0.263670996,27.4433603 0.439453125,27.2675781 C0.615235254,27.091796 0.820311328,27.0039062 1.0546875,27.0039062 L21.5332031,27.0039062 Z M28.9453125,27.0039062 C29.1796887,27.0039062 29.3847647,27.0966788 29.5605469,27.2822266 C29.736329,27.4677744 29.8242188,27.6777332 29.8242188,27.9121094 C29.8242188,28.1660169 29.736329,28.3857413 29.5605469,28.5712891 C29.3847647,28.7568369 29.1796887,28.8496094 28.9453125,28.8496094 L25.1367188,28.8496094 C24.8828112,28.8496094 24.6728524,28.7568369 24.5068359,28.5712891 C24.3408195,28.3857413 24.2578125,28.1660169 24.2578125,27.9121094 C24.2578125,27.6582019 24.3408195,27.4433603 24.5068359,27.2675781 C24.6728524,27.091796 24.8828112,27.0039062 25.1367188,27.0039062 L28.9453125,27.0039062 Z" id="" fill="#E0DED9"></path>
    </g>
</svg>