<?xml version="1.0" encoding="UTF-8" standalone="no"?>
<svg width="30px" height="30px" viewBox="0 0 30 30" version="1.1" xmlns="http://www.w3.org/2000/svg" xmlns:xlink="http://www.w3.org/1999/xlink">
    <!-- Generator: Sketch 50.2 (55047) - http://www.bohemiancoding.com/sketch -->
    <title>icons/30px/negative/washing-tunnel</title>
    <desc>Created with Sketch.</desc>
    <defs></defs>
    <g id="icons/30px/negative/washing-tunnel" stroke="none" stroke-width="1" fill="none" fill-rule="evenodd">
        <path d="M18.3398438,0.98828125 L18.9550781,0.98828125 L18.9550781,4.6796875 L18.3398438,4.6796875 L18.3398438,0.98828125 Z M17.4023438,6.4375 L18.0175781,6.4375 L18.0175781,10.1289062 L17.4023438,10.1289062 L17.4023438,6.4375 Z M17.4023438,0.98828125 L18.0175781,0.98828125 L18.0175781,4.6796875 L17.4023438,4.6796875 L17.4023438,0.98828125 Z M18.3398438,6.4375 L18.9550781,6.4375 L18.9550781,10.1289062 L18.3398438,10.1289062 L18.3398438,6.4375 Z M20.1855469,0.98828125 L20.8007812,0.98828125 L20.8007812,4.6796875 L20.1855469,4.6796875 L20.1855469,0.98828125 Z M20.1855469,6.4375 L20.8007812,6.4375 L20.8007812,10.1289062 L20.1855469,10.1289062 L20.1855469,6.4375 Z M19.2480469,6.4375 L19.8632812,6.4375 L19.8632812,10.1289062 L19.2480469,10.1289062 L19.2480469,6.4375 Z M19.2480469,0.98828125 L19.8632812,0.98828125 L19.8632812,4.6796875 L19.2480469,4.6796875 L19.2480469,0.98828125 Z M21.1230469,6.4375 L21.7382812,6.4375 L21.7382812,10.1289062 L21.1230469,10.1289062 L21.1230469,6.4375 Z M16.4648438,6.4375 L17.0800781,6.4375 L17.0800781,10.1289062 L16.4648438,10.1289062 L16.4648438,6.4375 Z M14.6191406,6.4375 L15.234375,6.4375 L15.234375,10.1289062 L14.6191406,10.1289062 L14.6191406,6.4375 Z M13.6816406,0.98828125 L14.296875,0.98828125 L14.296875,4.6796875 L13.6816406,4.6796875 L13.6816406,0.98828125 Z M16.4648438,0.98828125 L17.0800781,0.98828125 L17.0800781,4.6796875 L16.4648438,4.6796875 L16.4648438,0.98828125 Z M12.7441406,0.98828125 L13.359375,0.98828125 L13.359375,4.6796875 L12.7441406,4.6796875 L12.7441406,0.98828125 Z M13.6816406,6.4375 L14.296875,6.4375 L14.296875,10.1289062 L13.6816406,10.1289062 L13.6816406,6.4375 Z M14.6191406,0.98828125 L15.234375,0.98828125 L15.234375,4.6796875 L14.6191406,4.6796875 L14.6191406,0.98828125 Z M15.5273438,0.98828125 L16.1425781,0.98828125 L16.1425781,4.6796875 L15.5273438,4.6796875 L15.5273438,0.98828125 Z M21.1230469,0.98828125 L21.7382812,0.98828125 L21.7382812,4.6796875 L21.1230469,4.6796875 L21.1230469,0.98828125 Z M15.5273438,6.4375 L16.1425781,6.4375 L16.1425781,10.1289062 L15.5273438,10.1289062 L15.5273438,6.4375 Z M22.0605469,6.4375 L22.6757812,6.4375 L22.6757812,10.1289062 L22.0605469,10.1289062 L22.0605469,6.4375 Z M25.9277344,15.4023438 L29.6191406,15.4023438 L29.6191406,15.9882812 L25.9277344,15.9882812 L25.9277344,15.4023438 Z M25.9277344,14.4941406 L29.6191406,14.4941406 L29.6191406,15.0800781 L25.9277344,15.0800781 L25.9277344,14.4941406 Z M25.9277344,13.5566406 L29.6191406,13.5566406 L29.6191406,14.171875 L25.9277344,14.171875 L25.9277344,13.5566406 Z M12.7441406,6.4375 L13.359375,6.4375 L13.359375,10.1289062 L12.7441406,10.1289062 L12.7441406,6.4375 Z M25.9277344,12.6484375 L29.6191406,12.6484375 L29.6191406,13.2636719 L25.9277344,13.2636719 L25.9277344,12.6484375 Z M25.9277344,10.8320312 L29.6191406,10.8320312 L29.6191406,11.4472656 L25.9277344,11.4472656 L25.9277344,10.8320312 Z M25.9277344,10.2167969 L29.6191406,10.2167969 L29.6191406,10.5390625 L25.9277344,10.5390625 L25.9277344,10.2167969 Z M25.9277344,11.7402344 L29.6191406,11.7402344 L29.6191406,12.3554688 L25.9277344,12.3554688 L25.9277344,11.7402344 Z M25.9277344,17.1894531 L29.6191406,17.1894531 L29.6191406,17.8046875 L25.9277344,17.8046875 L25.9277344,17.1894531 Z M25.9277344,16.3105469 L29.6191406,16.3105469 L29.6191406,16.8964844 L25.9277344,16.8964844 L25.9277344,16.3105469 Z M25.9277344,23.5761719 L29.6191406,23.5761719 L29.6191406,24.1621094 L25.9277344,24.1621094 L25.9277344,23.5761719 Z M25.9277344,24.484375 L29.6191406,24.484375 L29.6191406,24.7773438 L25.9277344,24.7773438 L25.9277344,24.484375 Z M22.0605469,0.98828125 L22.6757812,0.98828125 L22.6757812,4.6796875 L22.0605469,4.6796875 L22.0605469,0.98828125 Z M25.9277344,18.1269531 L29.6191406,18.1269531 L29.6191406,18.7128906 L25.9277344,18.7128906 L25.9277344,18.1269531 Z M25.9277344,22.6679688 L29.6191406,22.6679688 L29.6191406,23.2832031 L25.9277344,23.2832031 L25.9277344,22.6679688 Z M25.9277344,19.9433594 L29.6191406,19.9433594 L29.6191406,20.5292969 L25.9277344,20.5292969 L25.9277344,19.9433594 Z M25.9277344,21.7597656 L29.6191406,21.7597656 L29.6191406,22.3457031 L25.9277344,22.3457031 L25.9277344,21.7597656 Z M25.9277344,19.0058594 L29.6191406,19.0058594 L29.6191406,19.6210938 L25.9277344,19.6210938 L25.9277344,19.0058594 Z M25.9277344,20.8515625 L29.6191406,20.8515625 L29.6191406,21.4375 L25.9277344,21.4375 L25.9277344,20.8515625 Z M0.17578125,17.1894531 L3.8671875,17.1894531 L3.8671875,17.8046875 L0.17578125,17.8046875 L0.17578125,17.1894531 Z M0.17578125,18.1269531 L3.8671875,18.1269531 L3.8671875,18.7128906 L0.17578125,18.7128906 L0.17578125,18.1269531 Z M0.17578125,19.9433594 L3.8671875,19.9433594 L3.8671875,20.5292969 L0.17578125,20.5292969 L0.17578125,19.9433594 Z M0.17578125,19.0058594 L3.8671875,19.0058594 L3.8671875,19.6210938 L0.17578125,19.6210938 L0.17578125,19.0058594 Z M0.17578125,20.8515625 L3.8671875,20.8515625 L3.8671875,21.4375 L0.17578125,21.4375 L0.17578125,20.8515625 Z M0.17578125,12.6484375 L3.8671875,12.6484375 L3.8671875,13.2636719 L0.17578125,13.2636719 L0.17578125,12.6484375 Z M0.17578125,21.7597656 L3.8671875,21.7597656 L3.8671875,22.3457031 L0.17578125,22.3457031 L0.17578125,21.7597656 Z M0.17578125,13.5566406 L3.8671875,13.5566406 L3.8671875,14.171875 L0.17578125,14.171875 L0.17578125,13.5566406 Z M0.17578125,14.4941406 L3.8671875,14.4941406 L3.8671875,15.0800781 L0.17578125,15.0800781 L0.17578125,14.4941406 Z M0.17578125,15.4023438 L3.8671875,15.4023438 L3.8671875,15.9882812 L0.17578125,15.9882812 L0.17578125,15.4023438 Z M0.17578125,16.3105469 L3.8671875,16.3105469 L3.8671875,16.8964844 L0.17578125,16.8964844 L0.17578125,16.3105469 Z M23.9355469,6.4375 L24.2285156,6.4375 L24.2285156,10.1289062 L23.9355469,10.1289062 L23.9355469,6.4375 Z M22.9980469,0.98828125 L23.6132812,0.98828125 L23.6132812,4.6796875 L22.9980469,4.6796875 L22.9980469,0.98828125 Z M23.9355469,0.98828125 L24.2285156,0.98828125 L24.2285156,4.6796875 L23.9355469,4.6796875 L23.9355469,0.98828125 Z M28.8867188,26.9453125 C29.1406263,26.9453125 29.3603506,27.0332022 29.5458984,27.2089844 C29.7314462,27.3847665 29.8242188,27.5996081 29.8242188,27.8535156 C29.8242188,28.1074231 29.7314462,28.3222647 29.5458984,28.4980469 C29.3603506,28.673829 29.1406263,28.7617188 28.8867188,28.7617188 L25.1953125,28.7617188 C24.941405,28.7617188 24.7216806,28.673829 24.5361328,28.4980469 C24.350585,28.3222647 24.2578125,28.1074231 24.2578125,27.8535156 C24.2578125,27.5996081 24.350585,27.3847665 24.5361328,27.2089844 C24.7216806,27.0332022 24.941405,26.9453125 25.1953125,26.9453125 L28.8867188,26.9453125 Z M22.3535156,17.5410156 C22.5292978,17.5410156 22.6855462,17.6093743 22.8222656,17.7460938 C22.9589851,17.8828132 23.0175782,18.0292961 22.9980469,18.1855469 C22.9980469,18.3808604 22.9345709,18.5419916 22.8076172,18.6689453 C22.6806634,18.7958991 22.5195322,18.859375 22.3242188,18.859375 L21.6503906,18.859375 L21.6503906,26.9160156 C21.8652354,26.9550783 22.0458977,27.0576164 22.1923828,27.2236328 C22.3388679,27.3896493 22.4121094,27.5898426 22.4121094,27.8242188 C22.4121094,28.0781263 22.3242196,28.2978506 22.1484375,28.4833984 C21.9726554,28.6689462 21.7578138,28.7617188 21.5039062,28.7617188 L1.171875,28.7617188 C0.91796748,28.7617188 0.703125879,28.6689462 0.52734375,28.4833984 C0.351561621,28.2978506 0.263671875,28.0781263 0.263671875,27.8242188 C0.263671875,27.5703112 0.351561621,27.3554696 0.52734375,27.1796875 C0.703125879,27.0039054 0.91796748,26.9160156 1.171875,26.9160156 L8.14453125,26.9160156 L8.14453125,18.8886719 L7.47070312,18.8886719 C7.27538965,18.8886719 7.11425845,18.8251959 6.98730469,18.6982422 C6.86035093,18.5712884 6.796875,18.4101572 6.796875,18.2148438 C6.796875,18.0195303 6.86035093,17.8583991 6.98730469,17.7314453 C7.11425845,17.6044916 7.27538965,17.5410156 7.47070312,17.5410156 L8.49609375,17.5410156 L9.140625,14.9042969 C9.37500117,13.9667922 9.97069834,13.2734397 10.9277344,12.8242188 C11.8847704,12.3749978 13.2226477,12.1503906 14.9414062,12.1503906 L15.0585938,12.1503906 C16.7773523,12.1503906 18.1152296,12.3749978 19.0722656,12.8242188 C20.0293017,13.2734397 20.6249988,13.9667922 20.859375,14.9042969 L21.5039062,17.5410156 L22.3535156,17.5410156 Z M9.81445312,17.7753906 C10.595707,17.853516 11.4062458,17.9218747 12.2460938,17.9804688 C13.0859417,18.0390628 13.9550736,18.0683594 14.8535156,18.0683594 C15.771489,18.0683594 16.6748002,18.0390628 17.5634766,17.9804688 C18.4521529,17.9218747 19.3066365,17.8437505 20.1269531,17.7460938 L19.5117188,15.2265625 C19.3749993,14.6406221 18.9306678,14.2060561 18.1787109,13.9228516 C17.4267541,13.639647 16.3769599,13.4980469 15.0292969,13.4980469 L14.9121094,13.4980469 C13.5839777,13.4980469 12.5439491,13.639647 11.7919922,13.9228516 C11.0400353,14.2060561 10.5957038,14.6406221 10.4589844,15.2265625 L9.81445312,17.7753906 Z M19.921875,20.5878906 C19.921875,20.3144518 19.8291025,20.0849619 19.6435547,19.8994141 C19.4580069,19.7138663 19.228517,19.6113282 18.9550781,19.5917969 C18.6816393,19.5917969 18.4521494,19.6894521 18.2666016,19.8847656 C18.0810538,20.0800791 17.9882812,20.3144518 17.9882812,20.5878906 C17.9882812,20.8417981 18.0810538,21.0664053 18.2666016,21.2617188 C18.4521494,21.4570322 18.6816393,21.5546875 18.9550781,21.5546875 C19.228517,21.5546875 19.4580069,21.4570322 19.6435547,21.2617188 C19.8291025,21.0664053 19.921875,20.8417981 19.921875,20.5878906 Z M10.7226562,19.6210938 C10.4492174,19.6210938 10.2197275,19.7138663 10.0341797,19.8994141 C9.84863188,20.0849619 9.75585938,20.3144518 9.75585938,20.5878906 C9.75585938,20.8613295 9.84863188,21.0908194 10.0341797,21.2763672 C10.2197275,21.461915 10.4492174,21.5546875 10.7226562,21.5546875 C10.9960951,21.5546875 11.225585,21.461915 11.4111328,21.2763672 C11.5966806,21.0908194 11.6894531,20.8613295 11.6894531,20.5878906 C11.6894531,20.3144518 11.5966806,20.0849619 11.4111328,19.8994141 C11.225585,19.7138663 10.9960951,19.6210938 10.7226562,19.6210938 Z M20.7421875,26.9453125 C20.5273427,26.8476558 20.3466804,26.6962901 20.2001953,26.4912109 C20.0537102,26.2861318 19.9804688,26.0468764 19.9804688,25.7734375 L19.9804688,24.2792969 L9.81445312,24.2792969 L9.81445312,25.7734375 C9.81445312,26.0468764 9.74121167,26.2861318 9.59472656,26.4912109 C9.44824146,26.6962901 9.25781367,26.8476558 9.0234375,26.9453125 L20.7421875,26.9453125 Z M22.9980469,6.4375 L23.6132812,6.4375 L23.6132812,10.1289062 L22.9980469,10.1289062 L22.9980469,6.4375 Z M0.17578125,24.484375 L3.8671875,24.484375 L3.8671875,24.7773438 L0.17578125,24.7773438 L0.17578125,24.484375 Z M0.17578125,23.5761719 L3.8671875,23.5761719 L3.8671875,24.1621094 L0.17578125,24.1621094 L0.17578125,23.5761719 Z M0.17578125,22.6679688 L3.8671875,22.6679688 L3.8671875,23.2832031 L0.17578125,23.2832031 L0.17578125,22.6679688 Z M9.93164062,6.4375 L10.546875,6.4375 L10.546875,10.1289062 L9.93164062,10.1289062 L9.93164062,6.4375 Z M0.17578125,11.7402344 L3.8671875,11.7402344 L3.8671875,12.3554688 L0.17578125,12.3554688 L0.17578125,11.7402344 Z M11.8066406,0.98828125 L12.421875,0.98828125 L12.421875,4.6796875 L11.8066406,4.6796875 L11.8066406,0.98828125 Z M8.05664062,6.4375 L8.671875,6.4375 L8.671875,10.1289062 L8.05664062,10.1289062 L8.05664062,6.4375 Z M8.05664062,0.98828125 L8.671875,0.98828125 L8.671875,4.6796875 L8.05664062,4.6796875 L8.05664062,0.98828125 Z M8.99414062,6.4375 L9.609375,6.4375 L9.609375,10.1289062 L8.99414062,10.1289062 L8.99414062,6.4375 Z M11.8066406,6.4375 L12.421875,6.4375 L12.421875,10.1289062 L11.8066406,10.1289062 L11.8066406,6.4375 Z M10.8691406,0.98828125 L11.484375,0.98828125 L11.484375,4.6796875 L10.8691406,4.6796875 L10.8691406,0.98828125 Z M9.93164062,0.98828125 L10.546875,0.98828125 L10.546875,4.6796875 L9.93164062,4.6796875 L9.93164062,0.98828125 Z M10.8691406,6.4375 L11.484375,6.4375 L11.484375,10.1289062 L10.8691406,10.1289062 L10.8691406,6.4375 Z M8.99414062,0.98828125 L9.609375,0.98828125 L9.609375,4.6796875 L8.99414062,4.6796875 L8.99414062,0.98828125 Z M0.17578125,10.2167969 L3.8671875,10.2167969 L3.8671875,10.5390625 L0.17578125,10.5390625 L0.17578125,10.2167969 Z M5.59570312,6.4375 L5.88867188,6.4375 L5.88867188,10.1289062 L5.59570312,10.1289062 L5.59570312,6.4375 Z M7.11914062,0.98828125 L7.734375,0.98828125 L7.734375,4.6796875 L7.11914062,4.6796875 L7.11914062,0.98828125 Z M5.59570312,0.98828125 L5.88867188,0.98828125 L5.88867188,4.6796875 L5.59570312,4.6796875 L5.59570312,0.98828125 Z M0.17578125,10.8320312 L3.8671875,10.8320312 L3.8671875,11.4472656 L0.17578125,11.4472656 L0.17578125,10.8320312 Z M7.11914062,6.4375 L7.734375,6.4375 L7.734375,10.1289062 L7.11914062,10.1289062 L7.11914062,6.4375 Z M6.2109375,0.98828125 L6.82617188,0.98828125 L6.82617188,4.6796875 L6.2109375,4.6796875 L6.2109375,0.98828125 Z M6.2109375,6.4375 L6.82617188,6.4375 L6.82617188,10.1289062 L6.2109375,10.1289062 L6.2109375,6.4375 Z" id="" fill="#E0DED9"></path>
    </g>
</svg>