<?xml version="1.0" encoding="UTF-8" standalone="no"?>
<svg width="12px" height="12px" viewBox="0 0 12 12" version="1.1" xmlns="http://www.w3.org/2000/svg" xmlns:xlink="http://www.w3.org/1999/xlink">
    <!-- Generator: Sketch 50.2 (55047) - http://www.bohemiancoding.com/sketch -->
    <title>icons/user_platino</title>
    <desc>Created with Sketch.</desc>
    <defs></defs>
    <g id="icons/user_platino" stroke="none" stroke-width="1" fill="none" fill-rule="evenodd">
        <polygon id="Fill-3" fill="#9C9081" points="10.2 0 6.05 3.112 1.899 0 1 1.2 6.05 4.987 11.1 1.2"></polygon>
        <path d="M10.0498,7.9997 C10.0498,10.2087 8.2588,11.9997 6.0498,11.9997 C3.8408,11.9997 2.0498,10.2087 2.0498,7.9997 C2.0498,5.7907 3.8408,3.9997 6.0498,3.9997 C8.2588,3.9997 10.0498,5.7907 10.0498,7.9997" id="Fill-4" fill="#FFFFFF"></path>
        <path d="M4.35513703,11 C4.30213703,11 4.25013703,10.983 4.20713703,10.951 C4.13013703,10.896 4.09113703,10.8 4.10713703,10.706 L4.42513703,8.848 L3.07613703,7.53 C3.00713703,7.464 2.98213703,7.364 3.01313703,7.273 C3.04313703,7.183 3.12113703,7.116 3.21413703,7.103 L5.08213703,6.831 L5.91613703,5.14 C5.95913703,5.054 6.04613703,5 6.14213703,5 C6.23813703,5 6.32413703,5.054 6.36713703,5.14 L7.20113703,6.831 L9.06613703,7.103 C9.16213703,7.115 9.24013703,7.182 9.27113703,7.272 C9.30013703,7.363 9.27513703,7.463 9.20713703,7.53 L7.85713703,8.847 L8.16413703,10.639 C8.17913703,10.672 8.18913703,10.709 8.18913703,10.748 C8.18913703,10.887 8.07613703,11 7.93713703,11 L7.92713703,11 C7.88813703,11 7.84713703,10.99 7.81213703,10.971 L6.14213703,10.093 L4.47213703,10.971 C4.43513703,10.99 4.39613703,11 4.35513703,11" id="Fill-3" fill="#FFB81C"></path>
    </g>
</svg>