<?xml version="1.0" encoding="UTF-8" standalone="no"?>
<svg width="32px" height="32px" viewBox="0 0 32 32" version="1.1" xmlns="http://www.w3.org/2000/svg" xmlns:xlink="http://www.w3.org/1999/xlink">
    <!-- Generator: Sketch 50.2 (55047) - http://www.bohemiancoding.com/sketch -->
    <title>icons/weather/luna</title>
    <desc>Created with Sketch.</desc>
    <defs></defs>
    <g id="icons/weather/luna" stroke="none" stroke-width="1" fill="none" fill-rule="evenodd">
        <path d="M23.7471,19.1446 C22.9211,19.3956 22.0691,19.5216 21.2131,19.5216 C16.3961,19.5216 12.4791,15.6046 12.4791,10.7886 C12.4791,9.9316 12.6051,9.0806 12.8561,8.2546 C13.0431,7.6366 12.8751,6.9676 12.4201,6.5136 C11.9651,6.0566 11.2941,5.8866 10.6791,6.0766 C5.4881,7.6466 2.0001,12.3496 2.0001,17.7756 C2.0001,24.5156 7.4851,30.0006 14.2261,30.0006 C19.6501,30.0006 24.3531,26.5126 25.9261,21.3226 C26.1101,20.7056 25.9441,20.0376 25.4891,19.5816 C25.0331,19.1256 24.3641,18.9546 23.7471,19.1446" id="Fill-3" fill="#FFFFFF"></path>
        <path d="M26,2 C25.667,2 25.396,2.271 25.396,2.606 C25.396,4.144 24.145,5.395 22.607,5.395 C22.272,5.395 22.001,5.666 22.001,6.001 C22.001,6.335 22.272,6.606 22.607,6.606 C24.145,6.606 25.396,7.857 25.396,9.394 C25.396,9.729 25.667,10 26,10 C26.335,10 26.606,9.729 26.606,9.394 C26.606,7.857 27.857,6.606 29.395,6.606 C29.729,6.606 30.001,6.335 30.001,6.001 C30.001,5.666 29.729,5.395 29.395,5.395 C27.857,5.395 26.606,4.144 26.606,2.606 C26.606,2.271 26.335,2 26,2" id="Fill-5" fill="#FFFFFF"></path>
        <path d="M20,9 C19.833,9 19.696,9.136 19.696,9.303 C19.696,10.072 19.071,10.697 18.303,10.697 C18.136,10.697 18,10.833 18,11 C18,11.167 18.136,11.304 18.303,11.304 C19.071,11.304 19.696,11.929 19.696,12.697 C19.696,12.864 19.833,13.001 20,13.001 C20.167,13.001 20.303,12.864 20.303,12.697 C20.303,11.929 20.928,11.304 21.697,11.304 C21.865,11.304 22,11.167 22,11 C22,10.833 21.865,10.697 21.697,10.697 C20.928,10.697 20.303,10.072 20.303,9.303 C20.303,9.136 20.167,9 20,9" id="Fill-7" fill="#FFFFFF"></path>
    </g>
</svg>