<?xml version="1.0" encoding="UTF-8" standalone="no"?>
<svg width="32px" height="32px" viewBox="0 0 32 32" version="1.1" xmlns="http://www.w3.org/2000/svg" xmlns:xlink="http://www.w3.org/1999/xlink">
    <!-- Generator: Sketch 50.2 (55047) - http://www.bohemiancoding.com/sketch -->
    <title>icons/weather/seminublado-luna</title>
    <desc>Created with Sketch.</desc>
    <defs></defs>
    <g id="icons/weather/seminublado-luna" stroke="none" stroke-width="1" fill="none" fill-rule="evenodd">
        <g id="Group" transform="translate(2.000000, 17.000000)" fill="#F2F2F2">
            <path d="M5,13.9796168 C2.19674999,13.7499674 0,11.6082012 0,9 C0,6.23857625 2.46243388,4 5.5,4 C6.41602619,4 7.27974874,4.20358051 8.0394084,4.56368769 C8.01343337,4.37952379 8,4.19133066 8,4 C8,1.790861 9.790861,0 12,0 C14.143748,0 15.8936138,1.68641042 15.9953283,3.80496219 C17.2661744,2.69123548 19.03891,2 21,2 C24.8659932,2 28,4.6862915 28,8 C28,11.3137085 24.8659932,14 21,14 L5,14 L5,13.9796168 Z" id="Combined-Shape"></path>
        </g>
        <path d="M26,2 C25.667,2 25.396,2.271 25.396,2.606 C25.396,4.144 24.145,5.395 22.607,5.395 C22.272,5.395 22.001,5.666 22.001,6.001 C22.001,6.335 22.272,6.606 22.607,6.606 C24.145,6.606 25.396,7.857 25.396,9.394 C25.396,9.729 25.667,10 26,10 C26.335,10 26.606,9.729 26.606,9.394 C26.606,7.857 27.857,6.606 29.395,6.606 C29.729,6.606 30.001,6.335 30.001,6.001 C30.001,5.666 29.729,5.395 29.395,5.395 C27.857,5.395 26.606,4.144 26.606,2.606 C26.606,2.271 26.335,2 26,2" id="Fill-3" fill="#FFFFFF"></path>
        <path d="M20,9 C19.833,9 19.696,9.136 19.696,9.303 C19.696,10.072 19.071,10.697 18.303,10.697 C18.136,10.697 18,10.833 18,11 C18,11.167 18.136,11.304 18.303,11.304 C19.071,11.304 19.696,11.929 19.696,12.697 C19.696,12.864 19.833,13.001 20,13.001 C20.167,13.001 20.303,12.864 20.303,12.697 C20.303,11.929 20.928,11.304 21.697,11.304 C21.865,11.304 22,11.167 22,11 C22,10.833 21.865,10.697 21.697,10.697 C20.928,10.697 20.303,10.072 20.303,9.303 C20.303,9.136 20.167,9 20,9" id="Fill-5" fill="#FFFFFF"></path>
        <path d="M7.5,18 C8.028,18 8.557,18.06 9.067,18.177 C9.414,16.094 11.053,14.446 13.128,14.079 C12.713,13.063 12.479,11.953 12.479,10.788 C12.479,9.932 12.605,9.08 12.856,8.255 C13.043,7.637 12.875,6.968 12.42,6.514 C11.965,6.057 11.294,5.887 10.679,6.076 C5.488,7.646 2,12.35 2,17.775 C2,18.684 2.107,19.567 2.297,20.42 C3.482,18.955 5.371,18 7.5,18" id="Fill-7" fill="#FFFFFF"></path>
    </g>
</svg>