<?xml version="1.0" encoding="UTF-8" standalone="no"?>
<svg width="32px" height="32px" viewBox="0 0 32 32" version="1.1" xmlns="http://www.w3.org/2000/svg" xmlns:xlink="http://www.w3.org/1999/xlink">
    <!-- Generator: Sketch 50.2 (55047) - http://www.bohemiancoding.com/sketch -->
    <title>icons/20px/color/soleado</title>
    <desc>Created with Sketch.</desc>
    <defs></defs>
    <g id="icons/20px/color/soleado" stroke="none" stroke-width="1" fill="none" fill-rule="evenodd">
        <g id="Group" transform="translate(2.000000, 2.000000)" fill="#F2B701">
            <circle id="Oval" cx="14" cy="14" r="8"></circle>
            <rect id="Rectangle-3" x="12.7272727" y="0" width="2.54545455" height="3.81818182" rx="1.27272727"></rect>
            <rect id="Rectangle-3-Copy" x="12.7272727" y="24.1818182" width="2.54545455" height="3.81818182" rx="1.27272727"></rect>
            <rect id="Rectangle-3-Copy-2" transform="translate(1.909091, 14.000000) rotate(-270.000000) translate(-1.909091, -14.000000) " x="0.636363636" y="12.0909091" width="2.54545455" height="3.81818182" rx="1.27272727"></rect>
            <rect id="Rectangle-3-Copy-4" transform="translate(6.068067, 5.795340) rotate(-45.000000) translate(-6.068067, -5.795340) " x="4.79533976" y="3.88624885" width="2.54545455" height="3.81818182" rx="1.27272727"></rect>
            <rect id="Rectangle-3-Copy-5" transform="translate(22.613522, 22.613522) rotate(-45.000000) translate(-22.613522, -22.613522) " x="21.3407943" y="20.7044307" width="2.54545455" height="3.81818182" rx="1.27272727"></rect>
            <rect id="Rectangle-3-Copy-6" transform="translate(22.340794, 5.795340) rotate(45.000000) translate(-22.340794, -5.795340) " x="21.068067" y="3.88624885" width="2.54545455" height="3.81818182" rx="1.27272727"></rect>
            <rect id="Rectangle-3-Copy-7" transform="translate(6.068067, 22.613522) rotate(45.000000) translate(-6.068067, -22.613522) " x="4.79533976" y="20.7044307" width="2.54545455" height="3.81818182" rx="1.27272727"></rect>
            <rect id="Rectangle-3-Copy-3" transform="translate(26.090909, 14.000000) rotate(-270.000000) translate(-26.090909, -14.000000) " x="24.8181818" y="12.0909091" width="2.54545455" height="3.81818182" rx="1.27272727"></rect>
        </g>
    </g>
</svg>