<?xml version="1.0" encoding="UTF-8" standalone="no"?>
<svg width="32px" height="32px" viewBox="0 0 32 32" version="1.1" xmlns="http://www.w3.org/2000/svg" xmlns:xlink="http://www.w3.org/1999/xlink">
    <!-- Generator: Sketch 50.2 (55047) - http://www.bohemiancoding.com/sketch -->
    <title>icons/20px/color/seminublado</title>
    <desc>Created with Sketch.</desc>
    <defs></defs>
    <g id="icons/20px/color/seminublado" stroke="none" stroke-width="1" fill="none" fill-rule="evenodd">
        <g id="Group-Copy" transform="translate(2.000000, 2.000000)" fill="#F2B701">
            <circle id="Oval" cx="14" cy="14" r="8"></circle>
            <rect id="Rectangle-3" x="12.7272727" y="0" width="2.54545455" height="3.81818182" rx="1.27272727"></rect>
            <rect id="Rectangle-3-Copy-2" transform="translate(1.909091, 14.000000) rotate(-270.000000) translate(-1.909091, -14.000000) " x="0.636363636" y="12.0909091" width="2.54545455" height="3.81818182" rx="1.27272727"></rect>
            <rect id="Rectangle-3-Copy-4" transform="translate(6.068067, 5.795340) rotate(-45.000000) translate(-6.068067, -5.795340) " x="4.79533976" y="3.88624885" width="2.54545455" height="3.81818182" rx="1.27272727"></rect>
            <rect id="Rectangle-3-Copy-6" transform="translate(22.340794, 5.795340) rotate(45.000000) translate(-22.340794, -5.795340) " x="21.068067" y="3.88624885" width="2.54545455" height="3.81818182" rx="1.27272727"></rect>
            <rect id="Rectangle-3-Copy-3" transform="translate(26.090909, 14.000000) rotate(-270.000000) translate(-26.090909, -14.000000) " x="24.8181818" y="12.0909091" width="2.54545455" height="3.81818182" rx="1.27272727"></rect>
        </g>
        <g id="Group" transform="translate(2.000000, 17.000000)" fill="#F2F2F2">
            <path d="M14.0292518,7.44778409 C13.4343428,7.79868385 12.7406813,8 12,8 C11.5999363,8 11.2135902,7.9412681 10.8491136,7.83195617 C10.9477606,8.20667782 11,8.59779293 11,9 C11,11.7614237 8.53756612,14 5.5,14 C2.46243388,14 0,11.7614237 0,9 C0,6.23857625 2.46243388,4 5.5,4 C6.41602619,4 7.27974874,4.20358051 8.0394084,4.56368769 C8.01343337,4.37952379 8,4.19133066 8,4 C8,1.790861 9.790861,0 12,0 C14.143748,0 15.8936138,1.68641042 15.9953283,3.80496219 C17.2661744,2.69123548 19.03891,2 21,2 C24.8659932,2 28,4.6862915 28,8 C28,11.3137085 24.8659932,14 21,14 C17.1340068,14 14,11.3137085 14,8 C14,7.81382586 14.0098926,7.62963218 14.0292518,7.44778409 Z" id="Combined-Shape"></path>
            <rect id="Rectangle-4" x="5" y="5" width="16" height="9"></rect>
        </g>
    </g>
</svg>