<?xml version="1.0" encoding="UTF-8" standalone="no"?>
<svg width="48px" height="18px" viewBox="0 0 48 18" version="1.1" xmlns="http://www.w3.org/2000/svg" xmlns:xlink="http://www.w3.org/1999/xlink">
    <!-- Generator: Sketch 50.2 (55047) - http://www.bohemiancoding.com/sketch -->
    <title>CARTO-logo-negative</title>
    <desc>Created with Sketch.</desc>
    <defs></defs>
    <g id="CARTO-logo-negative" stroke="none" stroke-width="1" fill="none" fill-rule="evenodd">
        <circle id="Oval" fill-opacity="0.2" fill="#E0DED9" cx="38.5" cy="9" r="9"></circle>
        <path d="M3.997,11.9908 C5.2757875,11.9908 6.01471,11.4414 6.562675,10.6952 L5.35051,9.8424 C5.001805,10.2604 4.6447975,10.5394 4.038715,10.5394 C3.22507,10.5394 2.6521975,9.867 2.6521975,9.006 L2.6521975,8.9896 C2.6521975,8.1532 3.2248675,7.4644 4.0385125,7.4644 C4.59478,7.4644 4.976695,7.735 5.308795,8.1368 L6.5207575,7.2102 C6.0060025,6.5134 5.2421725,6.0214 4.054915,6.0214 C2.29519,6.0212 1,7.3332 1,9.006 L1,9.0224 C1,10.7364 2.3365,11.9908 3.997,11.9908 Z M9.30493,11.876 L10.9903375,11.876 L11.4054625,10.8428 L13.6552375,10.8428 L14.0703625,11.876 L15.7976875,11.876 L13.3231375,6.095 L11.770975,6.095 L9.304525,11.876 L9.30493,11.876 Z M11.878705,9.6046 L12.534805,7.981 L13.1821975,9.6046 L11.8783,9.6046 L11.878705,9.6046 Z M18.933805,11.876 L20.54449,11.876 L20.54449,10.1376 L21.258505,10.1376 L22.428955,11.876 L24.280615,11.876 L22.8940975,9.8752 C23.6162125,9.5718 24.089455,8.9896 24.089455,8.104 L24.089455,8.0876 C24.089455,7.5216 23.915305,7.0872 23.5747,6.751 C23.184685,6.3656 22.5703,6.136 21.6819325,6.136 L18.9340075,6.136 L18.9340075,11.876 L18.933805,11.876 Z M20.54449,8.8912 L20.54449,7.5052 L21.60721,7.5052 C22.13857,7.5052 22.4789725,7.7352 22.4789725,8.1942 L22.4789725,8.2108 C22.4789725,8.6288 22.1549725,8.8914 21.61531,8.8914 L20.544085,8.8914 L20.54449,8.8912 Z M28.89478,11.876 L28.89478,7.53 L27.159355,7.53 L27.159355,6.136 L32.24899,6.136 L32.24899,7.53 L30.505465,7.53 L30.505465,11.876 L28.89478,11.876 Z M38.4625,12 C36.78499,12 35.425,10.6568 35.425,9 C35.425,7.3432 36.78499,6 38.4625,6 C40.14001,6 41.5,7.3432 41.5,9 C41.5,10.6568 40.14001,12 38.4625,12 Z" id="Shape" fill="#E0DED9"></path>
    </g>
</svg>